<?xml version="1.0" encoding="UTF-8"?>
<svg version="1.1" xmlns="http://www.w3.org/2000/svg" width="1024" height="1024">
<path d="M0 0 C1.28874023 0.71265015 1.28874023 0.71265015 2.60351562 1.43969727 C8.05734913 4.30716806 13.58501385 6.88038056 19.22851562 9.35375977 C20.09968018 9.73607758 20.97084473 10.11839539 21.8684082 10.51229858 C23.6693842 11.30093197 25.47090548 12.08832121 27.27294922 12.87451172 C30.00566755 14.0668155 32.73638973 15.26359595 35.46679688 16.46118164 C44.44672888 20.39434043 53.43657311 24.29191073 62.50976562 28.00610352 C62.50976562 28.66610352 62.50976562 29.32610352 62.50976562 30.00610352 C63.16976562 30.00610352 63.82976562 30.00610352 64.50976562 30.00610352 C64.50976562 32.31610352 64.50976562 34.62610352 64.50976562 37.00610352 C63.51976562 37.46500977 62.52976562 37.92391602 61.50976562 38.39672852 C54.79792259 41.51442759 48.10290382 44.6422575 41.50976562 48.00610352 C41.83976562 48.66610352 42.16976562 49.32610352 42.50976562 50.00610352 C43.19683594 49.98290039 43.88390625 49.95969727 44.59179688 49.93579102 C45.49285156 49.91774414 46.39390625 49.89969727 47.32226562 49.88110352 C48.21558594 49.85790039 49.10890625 49.83469727 50.02929688 49.81079102 C52.50976562 50.00610352 52.50976562 50.00610352 55.50976562 52.00610352 C55.80157368 54.62281626 55.89857407 57.00281021 55.86621094 59.62109375 C55.86825531 60.40660614 55.87029968 61.19211853 55.87240601 62.00143433 C55.87542166 64.60608973 55.85691213 67.21011677 55.83789062 69.81469727 C55.83483393 71.62069034 55.83295713 73.42668577 55.83221436 75.23268127 C55.82760617 79.02158603 55.81316196 82.81027885 55.79101562 86.59912109 C55.76275307 91.45946769 55.75180664 96.31964706 55.74733353 101.18006802 C55.74317864 104.91093118 55.73336023 108.64176042 55.72145844 112.37260628 C55.71575465 114.16479279 55.7109963 115.95698257 55.70719147 117.74917412 C55.70032576 120.25341402 55.68669122 122.75752122 55.67089844 125.26171875 C55.66978058 126.00520065 55.66866272 126.74868256 55.66751099 127.51469421 C55.64157823 130.61555635 55.49812451 133.04102686 54.50976562 136.00610352 C51.44726562 137.69360352 51.44726562 137.69360352 48.50976562 139.00610352 C48.21414195 144.32780846 48.21414195 144.32780846 50.50976562 149.00610352 C51.83497065 149.68878489 53.16788744 150.35680762 54.50976562 151.00610352 C55.89526759 153.77710745 55.69751232 155.93957411 55.50976562 159.00610352 C53.50976562 162.00610352 53.50976562 162.00610352 50.50976562 163.00610352 C49.06385801 163.09873786 47.61407545 163.13666753 46.16520691 163.13981628 C44.83417686 163.14621376 44.83417686 163.14621376 43.47625732 163.15274048 C42.50529114 163.15228729 41.53432495 163.15183411 40.53393555 163.15136719 C38.99691734 163.15640511 38.99691734 163.15640511 37.42884827 163.1615448 C34.03263139 163.17106379 30.63646377 163.17299848 27.24023438 163.17407227 C24.88234944 163.17728448 22.52446471 163.18064853 20.1665802 163.18415833 C15.21936582 163.19015218 10.27216892 163.19199799 5.32495117 163.19140625 C-1.01368919 163.19130468 -7.3522174 163.20495044 -13.69083118 163.22217846 C-18.56272394 163.2332992 -23.43458961 163.23532542 -28.30649376 163.23479652 C-30.64326043 163.23597678 -32.9800278 163.24040107 -35.316782 163.24812889 C-38.58667463 163.25792891 -41.85632413 163.25505041 -45.1262207 163.24902344 C-46.57356094 163.2574527 -46.57356094 163.2574527 -48.05014038 163.26605225 C-53.61162355 163.24001156 -58.69125453 163.11131913 -63.31835938 159.63110352 C-71.79894958 149.93900042 -69.83276161 135.83330214 -69.86132812 123.73657227 C-69.8703062 121.76744015 -69.87942824 119.79830868 -69.88868713 117.82917786 C-69.90510496 113.71992337 -69.91286539 109.61074975 -69.91577148 105.50146484 C-69.92118122 100.23769087 -69.95899839 94.9746748 -70.00451565 89.71111584 C-70.03423886 85.65248313 -70.04149384 81.59403522 -70.04249763 77.53530312 C-70.04670094 75.59401245 -70.05913964 73.65272129 -70.08001518 71.71153831 C-70.10686201 69.00210422 -70.10212729 66.29445995 -70.08959961 63.58496094 C-70.1044339 62.78643204 -70.11926819 61.98790314 -70.134552 61.16517639 C-70.0814898 57.1365536 -69.66147926 55.22802803 -67.17152405 52.00117493 C-63.66230093 49.39006178 -61.77785496 49.39358629 -57.49023438 50.00610352 C-54.99023438 51.31860352 -54.99023438 51.31860352 -52.49023438 53.00610352 C-50.16498946 54.03457723 -47.83665424 55.02922667 -45.49023438 56.00610352 C-39.68157048 58.50603481 -33.95974022 61.18533377 -28.24023438 63.88110352 C-27.50651611 64.2247998 -26.77279785 64.56849609 -26.0168457 64.92260742 C-22.56277788 66.54299675 -19.12235887 68.18036619 -15.71289062 69.89282227 C-14.58753906 70.44583008 -13.4621875 70.99883789 -12.30273438 71.56860352 C-11.31917969 72.06489258 -10.335625 72.56118164 -9.32226562 73.07250977 C-2.69846826 75.25607883 3.01388302 71.57827461 8.88476562 68.69360352 C9.696875 68.30237305 10.50898438 67.91114258 11.34570312 67.50805664 C16.42385092 65.05443234 21.47048011 62.53837606 26.50976562 60.00610352 C28.50976562 59.00610352 30.50976562 58.00610352 32.50976562 57.00610352 C32.17976563 56.01610352 31.84976563 55.02610352 31.50976562 54.00610352 C25.63596452 55.75121834 20.29213824 58.00537959 14.84960938 60.81469727 C11.79819904 62.36842039 8.66816304 63.68531914 5.50976562 65.00610352 C4.39408203 65.55331055 4.39408203 65.55331055 3.25585938 66.11157227 C-2.740661 69.00610352 -2.740661 69.00610352 -6.05273438 69.00610352 C-9.64136771 67.53384369 -13.05647487 65.8067335 -16.49023438 64.00610352 C-22.0911859 61.15295423 -27.68809743 58.43245169 -33.49023438 56.00610352 C-34.99167076 55.34267814 -36.49159227 54.6758171 -37.99023438 54.00610352 C-41.80872751 52.30317347 -45.64308235 50.64318948 -49.49023438 49.00610352 C-49.49023438 48.34610352 -49.49023438 47.68610352 -49.49023438 47.00610352 C-50.56273437 46.79985352 -51.63523437 46.59360352 -52.74023438 46.38110352 C-57.72873743 45.15166748 -62.02898997 42.82704129 -66.56835938 40.47094727 C-70.13796028 38.68137462 -73.72043883 37.31103274 -77.49023438 36.00610352 C-77.49023438 34.02610352 -77.49023438 32.04610352 -77.49023438 30.00610352 C-70.66463305 26.53926338 -63.7487479 23.28650799 -56.80273438 20.06860352 C-55.70767578 19.55620117 -54.61261719 19.04379883 -53.484375 18.51586914 C-46.87839103 15.45588716 -40.22409882 12.69999571 -33.41186523 10.13378906 C-29.71952955 8.70862833 -26.18433663 7.09146105 -22.61523438 5.38110352 C-20.24437219 4.24676859 -17.86901078 3.12396949 -15.49023438 2.00610352 C-13.72292969 1.15918945 -13.72292969 1.15918945 -11.91992188 0.29516602 C-7.60285047 -1.32742347 -4.34659052 -1.73480098 0 0 Z M-57.49023438 138.00610352 C-57.91209738 144.34474475 -57.91209738 144.34474475 -55.49023438 150.00610352 C-53.21445969 151.14399086 -51.97990013 151.12952415 -49.45333862 151.12635803 C-48.18709152 151.12842003 -48.18709152 151.12842003 -46.89526367 151.13052368 C-45.96738037 151.12692841 -45.03949707 151.12333313 -44.08349609 151.11962891 C-43.10784698 151.11977493 -42.13219788 151.11992096 -41.12698364 151.12007141 C-37.89127403 151.11937287 -34.65562147 151.11158318 -31.41992188 151.10375977 C-29.18075594 151.10189538 -26.94158959 151.10047157 -24.7024231 151.09947205 C-18.80050537 151.0956485 -12.89861213 151.08581958 -6.9967041 151.07476807 C-0.97762381 151.06455046 5.04146042 151.05997367 11.06054688 151.05493164 C22.8769639 151.04419719 34.69336273 151.0271227 46.50976562 151.00610352 C46.01476562 150.04704102 46.01476562 150.04704102 45.50976562 149.06860352 C44.17919635 144.9937351 44.34317363 141.25419927 44.50976562 137.00610352 C31.50592996 136.98297211 18.50209916 136.96518434 5.49824715 136.95429134 C-0.53942464 136.94906427 -6.57708239 136.94196979 -12.61474609 136.93066406 C-18.43725854 136.91982898 -24.25975746 136.91382535 -30.08227921 136.91122627 C-32.30791563 136.90937315 -34.53355128 136.90575468 -36.75918198 136.90037346 C-39.86730319 136.89315482 -42.9753679 136.89211293 -46.08349609 136.89257812 C-47.01137939 136.88898285 -47.9392627 136.88538757 -48.89526367 136.88168335 C-50.16151077 136.88374535 -50.16151077 136.88374535 -51.45333862 136.885849 C-52.55672482 136.88446631 -52.55672482 136.88446631 -53.68240166 136.88305569 C-55.5919328 136.89635116 -55.5919328 136.89635116 -57.49023438 138.00610352 Z " fill="#1C2B5A" transform="translate(361.490234375,421.993896484375)"/>
<path d="M0 0 C1.28874023 0.71265015 1.28874023 0.71265015 2.60351562 1.43969727 C8.05734913 4.30716806 13.58501385 6.88038056 19.22851562 9.35375977 C20.09968018 9.73607758 20.97084473 10.11839539 21.8684082 10.51229858 C23.6693842 11.30093197 25.47090548 12.08832121 27.27294922 12.87451172 C30.00566755 14.0668155 32.73638973 15.26359595 35.46679688 16.46118164 C44.44672888 20.39434043 53.43657311 24.29191073 62.50976562 28.00610352 C62.50976562 28.66610352 62.50976562 29.32610352 62.50976562 30.00610352 C63.16976562 30.00610352 63.82976562 30.00610352 64.50976562 30.00610352 C64.50976562 32.31610352 64.50976562 34.62610352 64.50976562 37.00610352 C63.51976562 37.46500977 62.52976562 37.92391602 61.50976562 38.39672852 C60.87345215 38.69256836 60.23713867 38.9884082 59.58154297 39.29321289 C58.19714491 39.93663334 56.81204895 40.57855425 55.42626953 41.21899414 C51.84761507 42.88096561 48.34599933 44.6084387 44.88476562 46.50610352 C41.02719736 48.2205783 40.42152446 48.18772446 36.50976562 47.00610352 C33.56621877 45.70537814 30.6998767 44.25813933 27.82226562 42.81860352 C21.23720722 39.60906848 14.65676012 36.80030686 7.69726562 34.50610352 C6.59668823 34.14222534 6.59668823 34.14222534 5.47387695 33.77099609 C1.50877861 32.50897741 -2.35534599 31.57732828 -6.49023438 31.00610352 C-4.30526322 33.42873971 -2.34079425 34.70885216 0.65039062 35.98657227 C1.46733398 36.34243408 2.28427734 36.6982959 3.12597656 37.06494141 C3.99512695 37.4373999 4.86427734 37.8098584 5.75976562 38.19360352 C14.58824682 42.06027304 23.08932907 46.32383046 31.50976562 51.00610352 C31.50976562 51.99610352 31.50976562 52.98610352 31.50976562 54.00610352 C30.97609375 54.1646582 30.44242187 54.32321289 29.89257812 54.48657227 C24.59454264 56.14564566 19.7792987 58.27009646 14.84960938 60.81469727 C11.79819904 62.36842039 8.66816304 63.68531914 5.50976562 65.00610352 C4.39408203 65.55331055 4.39408203 65.55331055 3.25585938 66.11157227 C-2.740661 69.00610352 -2.740661 69.00610352 -6.05273438 69.00610352 C-9.64136771 67.53384369 -13.05647487 65.8067335 -16.49023438 64.00610352 C-22.0911859 61.15295423 -27.68809743 58.43245169 -33.49023438 56.00610352 C-34.99167076 55.34267814 -36.49159227 54.6758171 -37.99023438 54.00610352 C-41.80872751 52.30317347 -45.64308235 50.64318948 -49.49023438 49.00610352 C-49.49023438 48.34610352 -49.49023438 47.68610352 -49.49023438 47.00610352 C-50.56273437 46.79985352 -51.63523437 46.59360352 -52.74023438 46.38110352 C-57.72873743 45.15166748 -62.02898997 42.82704129 -66.56835938 40.47094727 C-70.13796028 38.68137462 -73.72043883 37.31103274 -77.49023438 36.00610352 C-77.49023438 34.02610352 -77.49023438 32.04610352 -77.49023438 30.00610352 C-70.66463305 26.53926338 -63.7487479 23.28650799 -56.80273438 20.06860352 C-55.70767578 19.55620117 -54.61261719 19.04379883 -53.484375 18.51586914 C-46.87839103 15.45588716 -40.22409882 12.69999571 -33.41186523 10.13378906 C-29.71952955 8.70862833 -26.18433663 7.09146105 -22.61523438 5.38110352 C-20.24437219 4.24676859 -17.86901078 3.12396949 -15.49023438 2.00610352 C-13.72292969 1.15918945 -13.72292969 1.15918945 -11.91992188 0.29516602 C-7.60285047 -1.32742347 -4.34659052 -1.73480098 0 0 Z " fill="#1B2B5A" transform="translate(361.490234375,421.993896484375)"/>
<path d="M0 0 C2.5 1.3125 2.5 1.3125 5 3 C7.32524491 4.02847371 9.65358014 5.02312316 12 6 C17.80866389 8.49993129 23.53049415 11.17923026 29.25 13.875 C29.98371826 14.21869629 30.71743652 14.56239258 31.47338867 14.91650391 C34.92745649 16.53689324 38.36787551 18.17426268 41.77734375 19.88671875 C42.90269531 20.43972656 44.02804687 20.99273437 45.1875 21.5625 C46.17105469 22.05878906 47.15460938 22.55507813 48.16796875 23.06640625 C54.8746358 25.27729373 60.73675072 21.47185638 66.6875 18.5625 C67.54150391 18.15451172 68.39550781 17.74652344 69.27539062 17.32617188 C72.67418647 15.68951685 75.85496623 14.09668918 79 12 C82.1875 11.875 82.1875 11.875 85 12 C80.0481342 15.95636117 74.36210064 18.43293399 68.6875 21.1875 C67.57181641 21.74630859 66.45613281 22.30511719 65.30664062 22.88085938 C64.21931641 23.40873047 63.13199219 23.93660156 62.01171875 24.48046875 C61.02647217 24.96410889 60.04122559 25.44774902 59.02612305 25.94604492 C53.97895876 27.70389956 49.95120175 27.60140128 45.08764648 25.47119141 C43.67524459 24.77851289 42.26995311 24.07119791 40.87109375 23.3515625 C39.7420034 22.79267838 39.7420034 22.79267838 38.59010315 22.22250366 C36.19919129 21.03626221 33.81818361 19.83161813 31.4375 18.625 C29.05165177 17.42906193 26.66389669 16.23711887 24.27418518 15.04891968 C22.79233202 14.31071766 21.31295983 13.56750703 19.83653259 12.81851196 C19.1588533 12.47831024 18.48117401 12.13810852 17.78295898 11.78759766 C17.19562485 11.49003571 16.60829071 11.19247375 16.00315857 10.88589478 C13.4096077 9.73889963 10.69033336 8.89677779 8 8 C8 33.41 8 58.82 8 85 C25.32031087 85.02907787 25.32031087 85.02907787 42.640625 85.04882812 C49.70313263 85.05480975 56.76562731 85.06189199 63.828125 85.07543945 C69.52096956 85.08629148 75.21380025 85.09228177 80.90665436 85.09487724 C83.08039824 85.0967273 85.25414135 85.10033991 87.42787933 85.10573006 C90.46853792 85.11297115 93.50913889 85.11398963 96.54980469 85.11352539 C97.45179596 85.11712067 98.35378723 85.12071594 99.28311157 85.12442017 C100.11319733 85.1230455 100.94328308 85.12167084 101.79852295 85.12025452 C102.51752148 85.12117631 103.23652 85.1220981 103.97730637 85.12304783 C106.35826147 85.04018691 106.35826147 85.04018691 110 84 C110.33 57.27 110.66 30.54 111 3 C107.7 3.33 104.4 3.66 101 4 C101.99 2.68 102.98 1.36 104 0 C108.08165827 -0.51020728 109.52957297 -0.31361802 113 2 C113.29180805 4.61671274 113.38880845 6.99670669 113.35644531 9.61499023 C113.35848969 10.40050262 113.36053406 11.18601501 113.36264038 11.99533081 C113.36565604 14.59998622 113.34714651 17.20401325 113.328125 19.80859375 C113.3250683 21.61458682 113.3231915 23.42058225 113.32244873 25.22657776 C113.31784055 29.01548251 113.30339633 32.80417533 113.28125 36.59301758 C113.25298744 41.45336418 113.24204101 46.31354354 113.2375679 51.1739645 C113.23341301 54.90482766 113.22359461 58.63565691 113.21169281 62.36650276 C113.20598902 64.15868928 113.20123067 65.95087905 113.19742584 67.7430706 C113.19056014 70.2473105 113.1769256 72.75141771 113.16113281 75.25561523 C113.16001495 75.99909714 113.15889709 76.74257904 113.15774536 77.5085907 C113.13181261 80.60945283 112.98835888 83.03492335 112 86 C108.9375 87.6875 108.9375 87.6875 106 89 C105.70437633 94.32170494 105.70437633 94.32170494 108 99 C109.32520503 99.68268138 110.65812182 100.3507041 112 101 C113.38550197 103.77100394 113.1877467 105.9334706 113 109 C111 112 111 112 108 113 C106.55409239 113.09263434 105.10430982 113.13056401 103.65544128 113.13371277 C102.32441124 113.14011024 102.32441124 113.14011024 100.9664917 113.14663696 C99.99552551 113.14618378 99.02455933 113.14573059 98.02416992 113.14526367 C96.48715172 113.15030159 96.48715172 113.15030159 94.91908264 113.15544128 C91.52286576 113.16496027 88.12669815 113.16689496 84.73046875 113.16796875 C82.37258382 113.17118097 80.01469908 113.17454501 77.65681458 113.17805481 C72.7096002 113.18404866 67.7624033 113.18589448 62.81518555 113.18530273 C56.47654519 113.18520116 50.13801698 113.19884692 43.79940319 113.21607494 C38.92751043 113.22719568 34.05564477 113.22922191 29.18374062 113.22869301 C26.84697394 113.22987326 24.51020657 113.23429756 22.17345238 113.24202538 C18.90355974 113.25182539 15.63391025 113.24894689 12.36401367 113.24291992 C11.39912018 113.24853943 10.43422668 113.25415894 9.44009399 113.25994873 C3.87861082 113.23390805 -1.20102015 113.10521561 -5.828125 109.625 C-14.30871521 99.93289691 -12.34252724 85.82719862 -12.37109375 73.73046875 C-12.38007182 71.76133663 -12.38919386 69.79220516 -12.39845276 67.82307434 C-12.41487059 63.71381986 -12.42263101 59.60464623 -12.42553711 55.49536133 C-12.43094684 50.23158735 -12.46876402 44.96857128 -12.51428127 39.70501232 C-12.54400449 35.64637961 -12.55125946 31.58793171 -12.55226326 27.5291996 C-12.55646656 25.58790894 -12.56890526 23.64661777 -12.58978081 21.7054348 C-12.61662764 18.9960007 -12.61189292 16.28835643 -12.59936523 13.57885742 C-12.61419952 12.78032852 -12.62903381 11.98179962 -12.64431763 11.15907288 C-12.59125542 7.13045009 -12.17124489 5.22192451 -9.68128967 1.99507141 C-6.17206656 -0.61604173 -4.28762059 -0.61251723 0 0 Z M0 88 C-0.421863 94.33864123 -0.421863 94.33864123 2 100 C4.27577468 101.13788734 5.51033424 101.12342063 8.03689575 101.12025452 C9.30314285 101.12231651 9.30314285 101.12231651 10.5949707 101.12442017 C11.522854 101.12082489 12.4507373 101.11722961 13.40673828 101.11352539 C14.38238739 101.11367142 15.3580365 101.11381744 16.36325073 101.1139679 C19.59896034 101.11326935 22.8346129 101.10547966 26.0703125 101.09765625 C28.30947844 101.09579186 30.54864479 101.09436806 32.78781128 101.09336853 C38.68972901 101.08954498 44.59162224 101.07971607 50.49353027 101.06866455 C56.51261056 101.05844694 62.5316948 101.05387016 68.55078125 101.04882812 C80.36719828 101.03809367 92.18359711 101.02101918 104 101 C103.505 100.0409375 103.505 100.0409375 103 99.0625 C101.66943072 94.98763159 101.83340801 91.24809575 102 87 C88.99616434 86.9768686 75.99233354 86.95908082 62.98848152 86.94818783 C56.95080974 86.94296076 50.91315199 86.93586627 44.87548828 86.92456055 C39.05297583 86.91372546 33.23047692 86.90772184 27.40795517 86.90512276 C25.18231874 86.90326963 22.95668309 86.89965117 20.7310524 86.89426994 C17.62293118 86.8870513 14.51486648 86.88600941 11.40673828 86.88647461 C10.47885498 86.88287933 9.55097168 86.87928406 8.5949707 86.87557983 C7.3287236 86.87764183 7.3287236 86.87764183 6.03689575 86.87974548 C4.93350955 86.87836279 4.93350955 86.87836279 3.80783272 86.87695217 C1.89830157 86.89024764 1.89830157 86.89024764 0 88 Z " fill="#021543" transform="translate(304,472)"/>
<path d="M0 0 C1.72265625 1.60546875 1.72265625 1.60546875 3 3 C3.33 1.35 3.66 -0.3 4 -2 C6.64590014 -2.02684679 9.29153096 -2.04676357 11.9375 -2.0625 C12.69224609 -2.07087891 13.44699219 -2.07925781 14.22460938 -2.08789062 C16.14994313 -2.09652441 18.07535581 -2.05224333 20 -2 C21.63768763 -0.36231237 21.12739222 1.49883789 21.12939453 3.7565918 C21.13254669 4.77242844 21.13569885 5.78826508 21.13894653 6.83488464 C21.1369223 7.9451149 21.13489807 9.05534515 21.1328125 10.19921875 C21.13376923 11.34099075 21.13472595 12.48276276 21.13571167 13.65913391 C21.13639441 16.08956965 21.13453362 18.52000719 21.13037109 20.95043945 C21.12508766 24.62650816 21.13027951 28.30245108 21.13671875 31.97851562 C21.15308598 67.82794032 21.15308598 67.82794032 14 75 C13.34 75 12.68 75 12 75 C12 75.66 12 76.32 12 77 C10.58521865 77.64995297 9.16808513 78.29478722 7.75 78.9375 C6.96109375 79.29714844 6.1721875 79.65679688 5.359375 80.02734375 C-3.47703858 83.67016988 -14.99599549 83.14290127 -23.91796875 79.9765625 C-29.40825243 77.40138254 -33.19923802 73.38608074 -36 68 C-36.06410546 65.66754744 -36.07167617 63.33223219 -36 61 C-33.22754986 60.86512405 -30.46162912 60.76599193 -27.6875 60.6875 C-26.90181641 60.64560547 -26.11613281 60.60371094 -25.30664062 60.56054688 C-23.09910144 60.51357796 -21.1564693 60.51829069 -19 61 C-17.14453125 63.45703125 -17.14453125 63.45703125 -16 66 C-11.34036597 67.55321134 -6.88619085 67.50298423 -2.1875 66.25 C0.45537263 64.73978707 1.60337792 63.71973773 3 61 C3.25063732 57.33285151 3.25063732 57.33285151 3 54 C1.989375 54.825 0.97875 55.65 -0.0625 56.5 C-6.24201399 60.34845177 -12.9848661 59.92125547 -20 59 C-26.8054586 56.87146345 -32.29670305 52.04169313 -36 46 C-40.49829742 34.82629325 -40.4038075 22.79513996 -36.19921875 11.59765625 C-33.05738969 4.79206561 -28.04698883 0.83954038 -21.25 -2.25 C-13.56164929 -4.02423478 -7.10599211 -3.36599626 0 0 Z M-16 15 C-20.15938934 18.94608732 -20.31335484 22.26589537 -20.5 27.9375 C-20.32513005 33.85185146 -19.75326958 37.41267051 -16 42 C-12.65604473 44.65210246 -9.13693443 44.29031119 -5 44 C-1.27218836 43.21976035 -0.16242905 42.19315887 2.3125 39.25 C5.21429496 33.62407099 4.69741971 27.12261093 4 21 C2.52494425 17.21616134 1.49239789 15.82398802 -2.0234375 13.8828125 C-7.49073131 11.62498809 -10.86886787 11.67985568 -16 15 Z " fill="#282B3E" transform="translate(740,481)"/>
<path d="M0 0 C0.79792969 0.00386719 1.59585937 0.00773437 2.41796875 0.01171875 C3.21589844 0.00785156 4.01382812 0.00398438 4.8359375 0 C10.79136108 0.01011108 10.79136108 0.01011108 11.91796875 1.13671875 C12.03580107 2.83343056 12.08529237 4.53494121 12.10742188 6.2355957 C12.1241394 7.32375076 12.14085693 8.41190582 12.15808105 9.53303528 C12.17165649 10.71838364 12.18523193 11.90373199 12.19921875 13.125 C12.22683289 14.93982124 12.22683289 14.93982124 12.25500488 16.79130554 C12.31397422 20.6772254 12.36667596 24.56319043 12.41796875 28.44921875 C12.48556496 33.54957353 12.55929808 38.649786 12.63671875 43.75 C12.65029419 44.92927567 12.66386963 46.10855133 12.67785645 47.32356262 C12.69457397 48.42117416 12.7112915 49.51878571 12.72851562 50.6496582 C12.7410437 51.61482864 12.75357178 52.57999908 12.76647949 53.57441711 C12.90415639 55.90309543 13.26076876 57.90585018 13.91796875 60.13671875 C14.57796875 60.13671875 15.23796875 60.13671875 15.91796875 60.13671875 C15.91796875 60.79671875 15.91796875 61.45671875 15.91796875 62.13671875 C22.90992777 64.13442133 28.53889447 65.20675894 35.66796875 62.94921875 C39.40307387 60.86617936 40.77104558 59.84657453 42.91796875 56.13671875 C43.52794186 51.9795942 43.49900731 47.84809195 43.4921875 43.65234375 C43.51343437 41.83533966 43.51343437 41.83533966 43.53511047 39.98162842 C43.57702584 36.11656789 43.59225954 32.25197469 43.60546875 28.38671875 C43.63447616 24.50739728 43.66894685 20.62819571 43.70796204 16.7489624 C43.73053948 14.33515844 43.7463037 11.92127983 43.75480652 9.50738525 C43.76184097 8.42245789 43.76887543 7.33753052 43.77612305 6.21972656 C43.77960251 5.25995911 43.78308197 4.30019165 43.78666687 3.31134033 C43.91796875 1.13671875 43.91796875 1.13671875 44.91796875 0.13671875 C47.78064442 0.06346707 50.61868775 0.0443367 53.48046875 0.07421875 C54.28677734 0.07873047 55.09308594 0.08324219 55.92382812 0.08789062 C57.92190631 0.09971357 59.91994658 0.11764961 61.91796875 0.13671875 C62.01994053 7.91044832 62.08967352 15.68400343 62.13769531 23.45825195 C62.15772871 26.09926804 62.18496326 28.74024024 62.21972656 31.38110352 C62.26860775 35.19167966 62.29102142 39.00166596 62.30859375 42.8125 C62.32923889 43.9806575 62.34988403 45.148815 62.37115479 46.35237122 C62.37356289 55.28207272 60.79568703 62.82014133 55.79296875 70.32421875 C53.91796875 72.13671875 53.91796875 72.13671875 51.91796875 72.13671875 C51.91796875 72.79671875 51.91796875 73.45671875 51.91796875 74.13671875 C50.50468746 74.95509317 49.08718529 75.76618094 47.66796875 76.57421875 C46.8790625 77.02667969 46.09015625 77.47914063 45.27734375 77.9453125 C35.97775497 82.6412969 21.01530967 81.48468461 11.13671875 79.30078125 C3.79386565 76.22750847 -1.60995083 70.7159109 -4.95703125 63.51171875 C-7.33864976 56.36686323 -7.22825842 49.44897774 -7.21484375 41.9921875 C-7.21580048 40.82665848 -7.2167572 39.66112946 -7.21774292 38.46028137 C-7.21842182 36.00517726 -7.21658781 33.55007134 -7.21240234 31.0949707 C-7.20702586 27.32043484 -7.21236954 23.54601667 -7.21875 19.77148438 C-7.21808964 17.38671849 -7.21680936 15.00195267 -7.21484375 12.6171875 C-7.21686798 11.48186081 -7.21889221 10.34653412 -7.22097778 9.17680359 C-7.21782562 8.13514542 -7.21467346 7.09348724 -7.21142578 6.02026367 C-7.21063019 5.09904221 -7.20983459 4.17782074 -7.20901489 3.22868347 C-6.9385382 -1.22722664 -3.73380381 0.00633923 0 0 Z " fill="#282B3F" transform="translate(464.08203125,459.86328125)"/>
<path d="M0 0 C5.3593855 4.72439912 7.57572939 10.22037514 8.20758057 17.33850098 C8.47582297 22.94110634 8.43993876 28.53948097 8.35668945 34.14648438 C8.31209181 37.15251331 8.29516397 40.15774159 8.28320312 43.1640625 C8.26979846 45.07032418 8.2548809 46.97657596 8.23828125 48.8828125 C8.23089432 49.78371613 8.22350739 50.68461975 8.21589661 51.61282349 C8.11840482 57.88159518 8.11840482 57.88159518 7 59 C4.48863896 59.09975032 2.01096585 59.13882183 -0.5 59.125 C-1.20253906 59.12886719 -1.90507813 59.13273438 -2.62890625 59.13671875 C-7.87338622 59.12661378 -7.87338622 59.12661378 -9 58 C-9.13553523 55.50184362 -9.21060266 53.02748795 -9.24609375 50.52734375 C-9.27906809 48.97200034 -9.31227906 47.41666193 -9.34570312 45.86132812 C-9.39286218 43.40832429 -9.43721213 40.95533522 -9.47680664 38.50219727 C-9.51690646 36.13534757 -9.56839372 33.76894197 -9.62109375 31.40234375 C-9.6295079 30.68118881 -9.63792206 29.96003387 -9.64659119 29.21702576 C-9.76611333 24.21195926 -10.42994763 19.77207651 -12 15 C-15.63782632 13.78739123 -18.17735999 13.60455448 -22 14 C-25.15954305 16.54137159 -26.71540886 18.14622659 -28 22 C-28.14184154 24.71728904 -28.2332394 27.41376703 -28.28125 30.1328125 C-28.29965942 30.9252536 -28.31806885 31.7176947 -28.33703613 32.53414917 C-28.41573578 35.92546077 -28.48365914 39.31696718 -28.55224609 42.70849609 C-28.6038356 45.18337237 -28.66111942 47.65807075 -28.71875 50.1328125 C-28.73232544 50.90569611 -28.74590088 51.67857971 -28.7598877 52.47488403 C-28.88714666 57.88714666 -28.88714666 57.88714666 -30 59 C-35.61 59 -41.22 59 -47 59 C-47 38.87 -47 18.74 -47 -2 C-41.72 -2 -36.44 -2 -31 -2 C-30.34 -0.35 -29.68 1.3 -29 3 C-28.46375 2.38125 -27.9275 1.7625 -27.375 1.125 C-19.90520707 -5.55849894 -8.41041749 -4.13143315 0 0 Z " fill="#282A3D" transform="translate(580,481)"/>
<path d="M0 0 C6.42309246 5.32704182 10.72894593 10.99510025 11.81640625 19.453125 C12.44300634 28.66524559 11.99750654 37.09092442 7.81640625 45.453125 C7.15640625 45.453125 6.49640625 45.453125 5.81640625 45.453125 C5.72359375 46.319375 5.72359375 46.319375 5.62890625 47.203125 C3.86738708 52.08117809 -1.44675335 54.40886045 -5.8894043 56.58886719 C-9.90222715 58.10056165 -13.80996496 58.13068702 -18.05859375 58.078125 C-18.93612305 58.07409668 -19.81365234 58.07006836 -20.71777344 58.06591797 C-27.54452354 57.85424562 -33.22461791 56.49040046 -38.18359375 51.453125 C-38.18359375 50.793125 -38.18359375 50.133125 -38.18359375 49.453125 C-38.84359375 49.453125 -39.50359375 49.453125 -40.18359375 49.453125 C-44.02079429 43.06952532 -46.94142655 37.96030816 -47.18359375 30.453125 C-47.22097656 29.73511719 -47.25835938 29.01710938 -47.296875 28.27734375 C-47.51307459 21.68894558 -46.26045193 15.68369953 -44.18359375 9.453125 C-43.52359375 9.453125 -42.86359375 9.453125 -42.18359375 9.453125 C-42.12171875 8.89625 -42.05984375 8.339375 -41.99609375 7.765625 C-40.42428546 3.29201678 -36.15573279 -0.093495 -32.18359375 -2.546875 C-22.29057946 -6.63312003 -8.86428543 -6.27952957 0 0 Z M-27.99609375 15.453125 C-30.8747792 20.30143734 -30.75948596 25.98214899 -30.18359375 31.453125 C-28.91912812 35.93373146 -27.36875931 39.39608545 -23.87109375 42.515625 C-19.77746274 43.94363582 -16.18932229 43.96888377 -11.99609375 42.890625 C-8.92311121 40.45343195 -7.31227288 38.15427585 -6.18359375 34.453125 C-4.94586571 23.83105038 -4.94586571 23.83105038 -8.43359375 14.078125 C-11.61432622 11.04197128 -13.27804772 9.75400069 -17.55859375 9.078125 C-22.0077881 9.71372419 -25.02868856 12.17874686 -27.99609375 15.453125 Z " fill="#282B3E" transform="translate(686.18359375,482.546875)"/>
<path d="M0 0 C0.29191833 2.53792221 0.38891878 4.8319129 0.35644531 7.37133789 C0.35951187 8.51053429 0.35951187 8.51053429 0.36264038 9.67274475 C0.36565495 12.18962474 0.34715304 14.70585386 0.328125 17.22265625 C0.32506872 18.96617979 0.3231916 20.70970576 0.32244873 22.45323181 C0.31784158 26.10929692 0.30339898 29.76514227 0.28125 33.42114258 C0.25294635 38.11802089 0.24203695 42.81472607 0.2375679 47.51168156 C0.23342011 51.11207324 0.22360836 54.71242958 0.21169281 58.31280327 C0.20597808 60.04523878 0.20122338 61.77767771 0.19742584 63.51011848 C0.19058497 65.92615929 0.17696362 68.34206016 0.16113281 70.75805664 C0.16001495 71.48067688 0.15889709 72.20329712 0.15774536 72.94781494 C0.11468744 77.88531256 0.11468744 77.88531256 -1 79 C-3.6773138 79.09981214 -6.32304175 79.13879875 -9 79.125 C-10.12535156 79.13080078 -10.12535156 79.13080078 -11.2734375 79.13671875 C-16.87338947 79.12661053 -16.87338947 79.12661053 -18 78 C-18.09500548 75.53555943 -18.12557985 73.09925374 -18.11352539 70.63452148 C-18.11367142 69.86384338 -18.11381744 69.09316528 -18.1139679 68.2991333 C-18.1132686 65.73975861 -18.10547545 63.1804558 -18.09765625 60.62109375 C-18.09579213 58.85132385 -18.0943682 57.08155344 -18.09336853 55.31178284 C-18.08954288 50.64448634 -18.0797122 45.97722077 -18.06866455 41.30993652 C-18.05845144 36.55102965 -18.05387113 31.79211779 -18.04882812 27.03320312 C-18.03808997 17.68878847 -18.02101299 8.3443968 -18 -1 C-15.56304285 -1.22181406 -13.126474 -1.42791119 -10.6875 -1.625 C-9.99720703 -1.68945312 -9.30691406 -1.75390625 -8.59570312 -1.8203125 C-4.7440028 -2.11802847 -3.31145584 -2.20763723 0 0 Z " fill="#2A2C3F" transform="translate(635,461)"/>
<path d="M0 0 C0.70253906 0.00386719 1.40507813 0.00773437 2.12890625 0.01171875 C2.83144531 0.00785156 3.53398438 0.00398438 4.2578125 0 C9.50229247 0.01010497 9.50229247 0.01010497 10.62890625 1.13671875 C10.72795777 2.97244506 10.75689832 4.8119945 10.75830078 6.65039062 C10.76145294 7.82831177 10.7646051 9.00623291 10.76785278 10.21984863 C10.76582855 11.50210327 10.76380432 12.78435791 10.76171875 14.10546875 C10.76315384 16.06413879 10.76315384 16.06413879 10.76461792 18.06237793 C10.76609458 20.82984597 10.76394136 23.59728179 10.75927734 26.36474609 C10.75358006 29.91934524 10.75685923 33.47386889 10.76284981 37.02846527 C10.76732372 40.40830589 10.76419511 43.78812598 10.76171875 47.16796875 C10.76374298 48.45022339 10.76576721 49.73247803 10.76785278 51.05358887 C10.76470062 52.23151001 10.76154846 53.40943115 10.75830078 54.62304688 C10.75750519 55.66593872 10.75670959 56.70883057 10.75588989 57.7833252 C10.62890625 60.13671875 10.62890625 60.13671875 9.62890625 61.13671875 C6.93235771 61.20991496 4.26199167 61.22914412 1.56640625 61.19921875 C0.42848633 61.19245117 0.42848633 61.19245117 -0.73242188 61.18554688 C-2.61201246 61.17372555 -4.49156274 61.15578953 -6.37109375 61.13671875 C-6.39422167 53.3309668 -6.41201113 45.5252228 -6.42290592 37.71944523 C-6.42813377 34.09525915 -6.43522962 30.47109645 -6.4465332 26.84692383 C-6.45736559 23.352119 -6.46337133 19.85733671 -6.46597099 16.3625164 C-6.46872926 14.37432486 -6.47654063 12.38614244 -6.48439026 10.39796448 C-6.48446579 9.19679489 -6.48454132 7.99562531 -6.48461914 6.75805664 C-6.48683975 5.6943837 -6.48906036 4.63071075 -6.49134827 3.5348053 C-6.26638897 -0.95127875 -3.93941224 0.00759039 0 0 Z " fill="#292B3E" transform="translate(600.37109375,478.86328125)"/>
<path d="M0 0 C0.79792969 0.00386719 1.59585937 0.00773437 2.41796875 0.01171875 C3.21589844 0.00785156 4.01382812 0.00398438 4.8359375 0 C10.79136108 0.01011108 10.79136108 0.01011108 11.91796875 1.13671875 C12.03580107 2.83343056 12.08529237 4.53494121 12.10742188 6.2355957 C12.1241394 7.32375076 12.14085693 8.41190582 12.15808105 9.53303528 C12.17165649 10.71838364 12.18523193 11.90373199 12.19921875 13.125 C12.22683289 14.93982124 12.22683289 14.93982124 12.25500488 16.79130554 C12.31397422 20.6772254 12.36667596 24.56319043 12.41796875 28.44921875 C12.48556496 33.54957353 12.55929808 38.649786 12.63671875 43.75 C12.65029419 44.92927567 12.66386963 46.10855133 12.67785645 47.32356262 C12.69457397 48.42117416 12.7112915 49.51878571 12.72851562 50.6496582 C12.7410437 51.61482864 12.75357178 52.57999908 12.76647949 53.57441711 C12.90415639 55.90309543 13.26076876 57.90585018 13.91796875 60.13671875 C14.57796875 60.13671875 15.23796875 60.13671875 15.91796875 60.13671875 C15.91796875 60.79671875 15.91796875 61.45671875 15.91796875 62.13671875 C22.90992777 64.13442133 28.53889447 65.20675894 35.66796875 62.94921875 C39.40307387 60.86617936 40.77104558 59.84657453 42.91796875 56.13671875 C43.52794186 51.9795942 43.49900731 47.84809195 43.4921875 43.65234375 C43.51343437 41.83533966 43.51343437 41.83533966 43.53511047 39.98162842 C43.57702584 36.11656789 43.59225954 32.25197469 43.60546875 28.38671875 C43.63447616 24.50739728 43.66894685 20.62819571 43.70796204 16.7489624 C43.73053948 14.33515844 43.7463037 11.92127983 43.75480652 9.50738525 C43.76184097 8.42245789 43.76887543 7.33753052 43.77612305 6.21972656 C43.77960251 5.25995911 43.78308197 4.30019165 43.78666687 3.31134033 C43.91796875 1.13671875 43.91796875 1.13671875 44.91796875 0.13671875 C47.78064442 0.06346707 50.61868775 0.0443367 53.48046875 0.07421875 C54.28677734 0.07873047 55.09308594 0.08324219 55.92382812 0.08789062 C57.92190631 0.09971357 59.91994658 0.11764961 61.91796875 0.13671875 C62.01994053 7.91044832 62.08967352 15.68400343 62.13769531 23.45825195 C62.15772871 26.09926804 62.18496326 28.74024024 62.21972656 31.38110352 C62.26860775 35.19167966 62.29102142 39.00166596 62.30859375 42.8125 C62.32923889 43.9806575 62.34988403 45.148815 62.37115479 46.35237122 C62.37356289 55.28207272 60.79568703 62.82014133 55.79296875 70.32421875 C53.91796875 72.13671875 53.91796875 72.13671875 51.91796875 72.13671875 C51.91796875 72.79671875 51.91796875 73.45671875 51.91796875 74.13671875 C50.50468746 74.95509317 49.08718529 75.76618094 47.66796875 76.57421875 C46.8790625 77.02667969 46.09015625 77.47914063 45.27734375 77.9453125 C35.97775497 82.6412969 21.01530967 81.48468461 11.13671875 79.30078125 C3.79386565 76.22750847 -1.60995083 70.7159109 -4.95703125 63.51171875 C-7.33864976 56.36686323 -7.22825842 49.44897774 -7.21484375 41.9921875 C-7.21580048 40.82665848 -7.2167572 39.66112946 -7.21774292 38.46028137 C-7.21842182 36.00517726 -7.21658781 33.55007134 -7.21240234 31.0949707 C-7.20702586 27.32043484 -7.21236954 23.54601667 -7.21875 19.77148438 C-7.21808964 17.38671849 -7.21680936 15.00195267 -7.21484375 12.6171875 C-7.21686798 11.48186081 -7.21889221 10.34653412 -7.22097778 9.17680359 C-7.21782562 8.13514542 -7.21467346 7.09348724 -7.21142578 6.02026367 C-7.21063019 5.09904221 -7.20983459 4.17782074 -7.20901489 3.22868347 C-6.9385382 -1.22722664 -3.73380381 0.00633923 0 0 Z M-4.08203125 3.13671875 C-4.18134407 10.64400429 -4.25371104 18.15090238 -4.30175781 25.65869141 C-4.32179997 28.20954048 -4.34904118 30.76034402 -4.38378906 33.31103516 C-4.43263155 36.99002355 -4.45507506 40.66840134 -4.47265625 44.34765625 C-4.49330139 45.47722748 -4.51394653 46.60679871 -4.53521729 47.77059937 C-4.53753121 56.04497525 -3.21874389 63.11237041 1.9609375 69.7578125 C11.98235126 78.2458952 21.07987833 78.96525095 33.84912109 78.30957031 C40.60892867 77.74479054 46.75999193 75.5913351 51.91796875 71.13671875 C59.19667506 62.12582032 60.21906264 54.36386454 60.11328125 43.078125 C60.11045135 41.9338353 60.10762146 40.78954559 60.10470581 39.61058044 C60.09355453 35.97335132 60.06845889 32.33637284 60.04296875 28.69921875 C60.03293244 26.22591503 60.02380773 23.75260743 60.015625 21.27929688 C59.99363167 15.23167498 59.95913635 9.18423929 59.91796875 3.13671875 C55.62796875 3.13671875 51.33796875 3.13671875 46.91796875 3.13671875 C46.89814941 4.5844165 46.87833008 6.03211426 46.85791016 7.52368164 C46.78164882 12.91171205 46.69296296 18.29947964 46.60058594 23.68725586 C46.56238096 26.01597899 46.52751349 28.34475942 46.49609375 30.67358398 C46.45025913 34.02738885 46.3922945 37.3808021 46.33203125 40.734375 C46.31470444 42.28790428 46.31470444 42.28790428 46.29702759 43.87281799 C46.03859419 56.62545178 46.03859419 56.62545178 41.54296875 61.94921875 C35.20718117 67.22904173 28.93840738 66.85005309 20.91796875 66.13671875 C17.33084204 65.18736193 15.00795471 63.64962044 12.78363037 60.56225586 C9.46678062 54.51744139 9.31636522 48.99428343 9.30859375 42.19921875 C9.28378937 40.51820068 9.28378937 40.51820068 9.25848389 38.80322266 C9.21016254 35.24766471 9.18866728 31.69253402 9.16796875 28.13671875 C9.13979595 25.71612452 9.1098667 23.29555006 9.078125 20.875 C9.00440721 14.96227477 8.95473524 9.04978453 8.91796875 3.13671875 C4.62796875 3.13671875 0.33796875 3.13671875 -4.08203125 3.13671875 Z " fill="#0C0D1A" transform="translate(464.08203125,459.86328125)"/>
<path d="M0 0 C16.95466719 0.8923509 35.18205804 9.3920494 49 19 C50.3191582 19.69429379 51.64649406 20.37530495 53 21 C52.50943115 21.41137207 52.0188623 21.82274414 51.51342773 22.24658203 C48.83510649 25.34961529 49.79918335 28.97791359 50.0625 32.875 C50.09021484 33.67808594 50.11792969 34.48117187 50.14648438 35.30859375 C50.44933785 40.48696158 51.32766521 43.12006733 55 47 C56.66515151 51.99545453 56.86592117 57.00838132 54.75 61.875 C50.77963272 66.69616027 50.77963272 66.69616027 46.91796875 67.35546875 C42.50261059 67.62639454 40.59766274 67.46069837 37 64.6875 C33.23668425 59.63054446 33.20059504 54.09980743 34 48 C35.38149787 45.28855269 36.66627338 44.05590203 39 42 C39.66 42 40.32 42 41 42 C41 37.05 41 32.1 41 27 C40.34 26.67 39.68 26.34 39 26 C38.76023437 24.65421875 38.76023437 24.65421875 38.515625 23.28125 C36.12867016 18.1136158 31.76008123 16.81101 26.75 14.5 C25.76104736 14.02369141 24.77209473 13.54738281 23.75317383 13.05664062 C17.06412032 9.86375419 10.29606639 6.90072163 3.38671875 4.21875 C1 3 1 3 0 0 Z " fill="#FAC038" transform="translate(355,453)"/>
<path d="M0 0 C1.72265625 1.60546875 1.72265625 1.60546875 3 3 C3.33 1.35 3.66 -0.3 4 -2 C6.64590014 -2.02684679 9.29153096 -2.04676357 11.9375 -2.0625 C12.69224609 -2.07087891 13.44699219 -2.07925781 14.22460938 -2.08789062 C16.14994313 -2.09652441 18.07535581 -2.05224333 20 -2 C21.63768763 -0.36231237 21.12739222 1.49883789 21.12939453 3.7565918 C21.13254669 4.77242844 21.13569885 5.78826508 21.13894653 6.83488464 C21.1369223 7.9451149 21.13489807 9.05534515 21.1328125 10.19921875 C21.13376923 11.34099075 21.13472595 12.48276276 21.13571167 13.65913391 C21.13639441 16.08956965 21.13453362 18.52000719 21.13037109 20.95043945 C21.12508766 24.62650816 21.13027951 28.30245108 21.13671875 31.97851562 C21.15308598 67.82794032 21.15308598 67.82794032 14 75 C13.34 75 12.68 75 12 75 C12 75.66 12 76.32 12 77 C10.58521865 77.64995297 9.16808513 78.29478722 7.75 78.9375 C6.96109375 79.29714844 6.1721875 79.65679688 5.359375 80.02734375 C-3.47703858 83.67016988 -14.99599549 83.14290127 -23.91796875 79.9765625 C-29.40825243 77.40138254 -33.19923802 73.38608074 -36 68 C-36.06410546 65.66754744 -36.07167617 63.33223219 -36 61 C-33.22754986 60.86512405 -30.46162912 60.76599193 -27.6875 60.6875 C-26.90181641 60.64560547 -26.11613281 60.60371094 -25.30664062 60.56054688 C-23.09910144 60.51357796 -21.1564693 60.51829069 -19 61 C-17.14453125 63.45703125 -17.14453125 63.45703125 -16 66 C-11.34036597 67.55321134 -6.88619085 67.50298423 -2.1875 66.25 C0.45537263 64.73978707 1.60337792 63.71973773 3 61 C3.25063732 57.33285151 3.25063732 57.33285151 3 54 C1.989375 54.825 0.97875 55.65 -0.0625 56.5 C-6.24201399 60.34845177 -12.9848661 59.92125547 -20 59 C-26.8928547 56.84412866 -32.06425393 51.95952459 -36 46 C-39.26281735 37.77202582 -39.01262938 27.54964962 -37 19 C-36.67 19 -36.34 19 -36 19 C-35.97421875 20.17175781 -35.9484375 21.34351563 -35.921875 22.55078125 C-35.73105322 37.17504682 -35.73105322 37.17504682 -29.35546875 49.92578125 C-23.38150012 55.37914259 -17.82189954 56.39998896 -9.875 56.25390625 C-3.95157844 55.73077799 -0.47299112 52.60324284 4 49 C4.66 49 5.32 49 6 49 C6.6119386 60.45685048 6.6119386 60.45685048 4.5625 65.625 C0.54931207 69.34454003 -3.72322415 70.85956675 -9.1875 71.09375 C-13.86093191 70.73970213 -16.76240185 69.3387731 -20 66 C-20 65.34 -20 64.68 -20 64 C-26.435 64.495 -26.435 64.495 -33 65 C-30.54623582 70.86176997 -27.30318148 74.58294008 -21.38671875 77.12109375 C-17.06663772 78.24222204 -13.06879058 78.32996773 -8.625 78.3125 C-7.40683594 78.33666992 -7.40683594 78.33666992 -6.1640625 78.36132812 C0.72798969 78.3668506 6.29761835 77.16190532 11.8125 72.75 C17.76666607 65.26476266 17.46912643 57.99027766 17.51171875 48.75390625 C17.52858537 47.37383954 17.54673826 45.993788 17.56611633 44.61375427 C17.61340792 41.00205225 17.64335125 37.39041177 17.66955566 33.77850342 C17.69946719 30.08463388 17.74596079 26.390976 17.79101562 22.69726562 C17.87681135 15.4649312 17.94272628 8.23262684 18 1 C14.04 1 10.08 1 6 1 C6 2.98 6 4.96 6 7 C2 7 2 7 -0.5625 4.5625 C-1.366875 3.716875 -2.17125 2.87125 -3 2 C-9.34377263 -0.11459088 -17.36151571 -0.20363234 -23.5 2.625 C-29.6048076 6.28788456 -32.54959689 11.55157077 -35 18 C-35.66 17.01 -36.32 16.02 -37 15 C-34.54441116 7.63323349 -30.79246524 2.93962984 -24 -1 C-15.94780684 -4.6600878 -7.79300018 -3.69142114 0 0 Z " fill="#111425" transform="translate(740,481)"/>
<path d="M0 0 C2.5 1.3125 2.5 1.3125 5 3 C7.32524491 4.02847371 9.65358014 5.02312316 12 6 C17.80866389 8.49993129 23.53049415 11.17923026 29.25 13.875 C29.98371826 14.21869629 30.71743652 14.56239258 31.47338867 14.91650391 C34.92745649 16.53689324 38.36787551 18.17426268 41.77734375 19.88671875 C42.90269531 20.43972656 44.02804687 20.99273437 45.1875 21.5625 C46.17105469 22.05878906 47.15460938 22.55507813 48.16796875 23.06640625 C54.8746358 25.27729373 60.73675072 21.47185638 66.6875 18.5625 C67.54150391 18.15451172 68.39550781 17.74652344 69.27539062 17.32617188 C72.67418647 15.68951685 75.85496623 14.09668918 79 12 C82.1875 11.875 82.1875 11.875 85 12 C80.0481342 15.95636117 74.36210064 18.43293399 68.6875 21.1875 C67.57181641 21.74630859 66.45613281 22.30511719 65.30664062 22.88085938 C64.21931641 23.40873047 63.13199219 23.93660156 62.01171875 24.48046875 C61.02647217 24.96410889 60.04122559 25.44774902 59.02612305 25.94604492 C54.06803347 27.67287612 50.02633861 27.62720469 45.23046875 25.55053711 C43.87589205 24.89014957 42.52847935 24.2149222 41.1875 23.52734375 C40.45611816 23.1666127 39.72473633 22.80588165 38.97119141 22.43421936 C36.64079366 21.28152202 34.32035785 20.11025539 32 18.9375 C30.47330885 18.17642387 28.94596927 17.41664702 27.41796875 16.65820312 C26.29068359 16.09838242 26.29068359 16.09838242 25.140625 15.5272522 C24.01914062 14.97042252 24.01914062 14.97042252 22.875 14.40234375 C22.13121094 14.03249359 21.38742187 13.66264343 20.62109375 13.28158569 C18.41514944 12.18551314 16.20794033 11.09204571 14 10 C13.28408691 9.64528625 12.56817383 9.29057251 11.83056641 8.92510986 C9.78810497 7.91931854 7.73923056 6.9281255 5.6875 5.94140625 C4.51574219 5.37236572 3.34398437 4.8033252 2.13671875 4.21704102 C-0.90279851 3.037714 -2.78977513 2.55078159 -6 3 C-8.62127427 5.62127427 -8.24947888 7.49229316 -8.28216553 11.06187439 C-8.2784494 12.33666405 -8.2784494 12.33666405 -8.2746582 13.63720703 C-8.27976913 14.5317308 -8.28488007 15.42625458 -8.29014587 16.34788513 C-8.30409354 19.31792824 -8.30308036 22.28774044 -8.30078125 25.2578125 C-8.30466711 27.32087287 -8.30900155 29.38393244 -8.31376648 31.44699097 C-8.3212411 35.77979112 -8.32092973 40.11250983 -8.31567383 44.4453125 C-8.30989645 49.98683569 -8.32676226 55.52802277 -8.3500185 61.06949043 C-8.36478721 65.33499082 -8.36562294 69.60041103 -8.36250877 73.86593246 C-8.36302103 75.9079848 -8.36824081 77.95004173 -8.37832069 79.99206924 C-8.39071986 82.85707273 -8.38387103 85.72143184 -8.37231445 88.58642578 C-8.37995819 89.42414017 -8.38760193 90.26185455 -8.39547729 91.12495422 C-8.34583241 96.72071345 -7.31790875 100.88766546 -5 106 C-1.58567115 109.30763107 1.70952727 110.12471953 6.37147522 110.12698364 C7.26460922 110.12980347 8.15774323 110.13262329 9.07794189 110.13552856 C10.05519226 110.13350433 11.03244263 110.1314801 12.03930664 110.12939453 C13.07041061 110.13114685 14.10151459 110.13289917 15.16386414 110.13470459 C18.57931185 110.1391135 21.99470799 110.13618868 25.41015625 110.1328125 C27.7776236 110.13348576 30.14509087 110.13445598 32.51255798 110.13571167 C37.47655902 110.1371873 42.44054207 110.1350382 47.40454102 110.13037109 C53.779416 110.12467079 60.15424891 110.12795559 66.52912235 110.13394356 C71.4180076 110.13755015 76.30688281 110.13641018 81.19576836 110.13381577 C83.54700157 110.13314693 85.89823569 110.13397342 88.24946785 110.13629532 C91.52969925 110.13882376 94.80986165 110.13497863 98.09008789 110.12939453 C99.55899979 110.13243088 99.55899979 110.13243088 101.05758667 110.13552856 C102.39305794 110.13129883 102.39305794 110.13129883 103.75550842 110.12698364 C104.53144883 110.12660662 105.30738924 110.12622959 106.10684299 110.12584114 C108.0890194 110.11670104 108.0890194 110.11670104 110 109 C110.65555119 106.47266765 110.65555119 106.47266765 111 104 C112.125 105.75 112.125 105.75 113 108 C112.3125 110.1875 112.3125 110.1875 111 112 C108.21113233 112.92962256 106.53571482 113.1274532 103.65544128 113.13371277 C102.32441124 113.14011024 102.32441124 113.14011024 100.9664917 113.14663696 C99.99552551 113.14618378 99.02455933 113.14573059 98.02416992 113.14526367 C96.48715172 113.15030159 96.48715172 113.15030159 94.91908264 113.15544128 C91.52286576 113.16496027 88.12669815 113.16689496 84.73046875 113.16796875 C82.37258382 113.17118097 80.01469908 113.17454501 77.65681458 113.17805481 C72.7096002 113.18404866 67.7624033 113.18589448 62.81518555 113.18530273 C56.47654519 113.18520116 50.13801698 113.19884692 43.79940319 113.21607494 C38.92751043 113.22719568 34.05564477 113.22922191 29.18374062 113.22869301 C26.84697394 113.22987326 24.51020657 113.23429756 22.17345238 113.24202538 C18.90355974 113.25182539 15.63391025 113.24894689 12.36401367 113.24291992 C11.39912018 113.24853943 10.43422668 113.25415894 9.44009399 113.25994873 C3.87861082 113.23390805 -1.20102015 113.10521561 -5.828125 109.625 C-14.30871521 99.93289691 -12.34252724 85.82719862 -12.37109375 73.73046875 C-12.38007182 71.76133663 -12.38919386 69.79220516 -12.39845276 67.82307434 C-12.41487059 63.71381986 -12.42263101 59.60464623 -12.42553711 55.49536133 C-12.43094684 50.23158735 -12.46876402 44.96857128 -12.51428127 39.70501232 C-12.54400449 35.64637961 -12.55125946 31.58793171 -12.55226326 27.5291996 C-12.55646656 25.58790894 -12.56890526 23.64661777 -12.58978081 21.7054348 C-12.61662764 18.9960007 -12.61189292 16.28835643 -12.59936523 13.57885742 C-12.61419952 12.78032852 -12.62903381 11.98179962 -12.64431763 11.15907288 C-12.59125542 7.13045009 -12.17124489 5.22192451 -9.68128967 1.99507141 C-6.17206656 -0.61604173 -4.28762059 -0.61251723 0 0 Z " fill="#060F39" transform="translate(304,472)"/>
<path d="M0 0 C1.28874023 0.71265015 1.28874023 0.71265015 2.60351562 1.43969727 C8.05734913 4.30716806 13.58501385 6.88038056 19.22851562 9.35375977 C20.09968018 9.73607758 20.97084473 10.11839539 21.8684082 10.51229858 C23.6693842 11.30093197 25.47090548 12.08832121 27.27294922 12.87451172 C30.00566755 14.0668155 32.73638973 15.26359595 35.46679688 16.46118164 C44.44672888 20.39434043 53.43657311 24.29191073 62.50976562 28.00610352 C62.50976562 28.66610352 62.50976562 29.32610352 62.50976562 30.00610352 C63.16976562 30.00610352 63.82976562 30.00610352 64.50976562 30.00610352 C64.50976562 32.31610352 64.50976562 34.62610352 64.50976562 37.00610352 C62.15625194 38.11167944 59.80198153 39.21559333 57.44726562 40.31860352 C56.79048828 40.62733398 56.13371094 40.93606445 55.45703125 41.25415039 C54.13297275 41.87378368 52.80661176 42.48852001 51.47802734 43.09838867 C50.17627023 43.69872766 48.88076617 44.31283485 47.59228516 44.94116211 C44.06128633 46.59776156 42.21140742 47.19169527 38.50976562 46.00610352 C39.20126709 45.69382812 39.89276855 45.38155273 40.60522461 45.05981445 C43.72630264 43.64021125 46.83667675 42.19853588 49.94726562 40.75610352 C51.03587891 40.2649707 52.12449219 39.77383789 53.24609375 39.26782227 C54.28056641 38.78442383 55.31503906 38.30102539 56.38085938 37.80297852 C57.81836548 37.14313965 57.81836548 37.14313965 59.28491211 36.4699707 C61.67671164 35.20845956 61.67671164 35.20845956 62.33032227 32.83129883 C62.38953857 32.22898437 62.44875488 31.62666992 62.50976562 31.00610352 C61.29804688 30.63227539 60.08632813 30.25844727 58.83789062 29.87329102 C52.44807471 27.73920207 46.38554964 24.91870726 40.25976562 22.13110352 C38.99416574 21.56326408 37.72820802 20.99622159 36.46191406 20.42993164 C30.43028143 17.72621362 24.42330303 14.98374033 18.46942139 12.11227417 C15.86657202 10.86016311 13.25376826 9.62969586 10.63977051 8.40106201 C9.39717956 7.80953838 8.15960656 7.20734354 6.9276123 6.59405518 C-0.70405933 2.50949112 -0.70405933 2.50949112 -8.97851562 2.80688477 C-10.49812405 3.50682772 -12.00079286 4.24407079 -13.49023438 5.00610352 C-15.61073478 5.89269647 -17.73475375 6.77089884 -19.86132812 7.64282227 C-22.21856965 8.65563325 -24.57397275 9.67273136 -26.92773438 10.69360352 C-28.17920186 11.23374368 -29.43074887 11.77369959 -30.68237305 12.31347656 C-45.38709131 18.66393214 -60.00506368 25.16944478 -74.49023438 32.00610352 C-74.49023438 32.66610352 -74.49023438 33.32610352 -74.49023438 34.00610352 C-73.75611328 34.32772461 -73.02199219 34.6493457 -72.265625 34.98071289 C-47.41682205 45.88804593 -47.41682205 45.88804593 -36.95532227 51.26879883 C-31.72860617 53.94080905 -26.39062742 56.30409039 -20.9777832 58.57373047 C-17.80217312 59.92082053 -14.86913037 61.36825951 -11.96289062 63.20922852 C-7.95549579 65.28279615 -5.94976203 65.35945326 -1.49023438 65.00610352 C1.79581907 63.84445197 1.79581907 63.84445197 4.99414062 62.12719727 C5.57641418 61.83627701 6.15868774 61.54535675 6.75860596 61.24562073 C8.59925444 60.32463203 10.42999681 59.38599961 12.25976562 58.44360352 C14.68644999 57.20115378 17.11914253 55.97361608 19.55664062 54.75219727 C20.6275293 54.20233154 21.69841797 53.65246582 22.80175781 53.0859375 C25.50976562 52.00610352 25.50976562 52.00610352 28.50976562 53.00610352 C27.84976563 53.00610352 27.18976563 53.00610352 26.50976562 53.00610352 C26.50976562 53.66610352 26.50976562 54.32610352 26.50976562 55.00610352 C24.32354313 56.1128597 22.13585614 57.2165473 19.94726562 58.31860352 C19.33818359 58.62733398 18.72910156 58.93606445 18.1015625 59.25415039 C13.96233771 61.33471312 9.77435636 63.19703506 5.50976562 65.00610352 C3.96768543 65.75525289 2.4259553 66.50512382 0.88476562 67.25610352 C-1.70038993 68.38956126 -3.21266169 69.00610352 -6.05273438 69.00610352 C-9.64136771 67.53384369 -13.05647487 65.8067335 -16.49023438 64.00610352 C-22.0911859 61.15295423 -27.68809743 58.43245169 -33.49023438 56.00610352 C-34.99167076 55.34267814 -36.49159227 54.6758171 -37.99023438 54.00610352 C-41.80872751 52.30317347 -45.64308235 50.64318948 -49.49023438 49.00610352 C-49.49023438 48.34610352 -49.49023438 47.68610352 -49.49023438 47.00610352 C-50.56273437 46.79985352 -51.63523437 46.59360352 -52.74023438 46.38110352 C-57.72873743 45.15166748 -62.02898997 42.82704129 -66.56835938 40.47094727 C-70.13796028 38.68137462 -73.72043883 37.31103274 -77.49023438 36.00610352 C-77.49023438 34.02610352 -77.49023438 32.04610352 -77.49023438 30.00610352 C-70.66463305 26.53926338 -63.7487479 23.28650799 -56.80273438 20.06860352 C-55.70767578 19.55620117 -54.61261719 19.04379883 -53.484375 18.51586914 C-46.87839103 15.45588716 -40.22409882 12.69999571 -33.41186523 10.13378906 C-29.71952955 8.70862833 -26.18433663 7.09146105 -22.61523438 5.38110352 C-20.24437219 4.24676859 -17.86901078 3.12396949 -15.49023438 2.00610352 C-13.72292969 1.15918945 -13.72292969 1.15918945 -11.91992188 0.29516602 C-7.60285047 -1.32742347 -4.34659052 -1.73480098 0 0 Z " fill="#060D3B" transform="translate(361.490234375,421.993896484375)"/>
<path d="M0 0 C5.28 0 10.56 0 16 0 C16 2.64 16 5.28 16 8 C15.67 8 15.34 8 15 8 C15 6.35 15 4.7 15 3 C10.71 3 6.42 3 2 3 C2 21.15 2 39.3 2 58 C6.29 58 10.58 58 15 58 C14.97643433 56.6087793 14.97643433 56.6087793 14.95239258 55.18945312 C14.90095943 51.71543678 14.86350318 48.24183094 14.83520508 44.76757812 C14.82021112 43.27011693 14.79980895 41.77269895 14.77368164 40.27539062 C14.46370516 22.04147982 14.46370516 22.04147982 20.625 15 C24.92609374 12.45120371 28.11498741 12.02660266 33 13 C37.11196058 15.36219012 38.63055998 17.53777547 40 22 C40.16557141 24.82379366 40.23353164 27.54328634 40.1953125 30.36328125 C40.1924826 31.15526413 40.18965271 31.94724701 40.18673706 32.76322937 C40.17558863 35.27980999 40.15049422 37.79602789 40.125 40.3125 C40.11496329 42.02408338 40.10583864 43.73567237 40.09765625 45.44726562 C40.07566681 49.63164906 40.04117408 53.81576314 40 58 C43.96 58 47.92 58 52 58 C51.67 42.49 51.34 26.98 51 11 C53.08382862 14.12574293 53.25889959 14.90452555 53.31884766 18.47143555 C53.33871735 19.37214279 53.35858704 20.27285004 53.37905884 21.20085144 C53.39061005 22.16968765 53.40216125 23.13852386 53.4140625 24.13671875 C53.43342865 25.13129593 53.4527948 26.12587311 53.4727478 27.15058899 C53.53256159 30.3294719 53.57893639 33.50839098 53.625 36.6875 C53.6631781 38.84181273 53.70222973 40.99611017 53.7421875 43.15039062 C53.83826451 48.43345809 53.92330674 53.71661753 54 59 C52.68 59 51.36 59 50 59 C50 59.66 50 60.32 50 61 C48.18757948 61.02687279 46.37504767 61.04633715 44.5625 61.0625 C43.55316406 61.07410156 42.54382813 61.08570313 41.50390625 61.09765625 C39 61 39 61 38 60 C37.86446477 57.50184362 37.78939734 55.02748795 37.75390625 52.52734375 C37.72093191 50.97200034 37.68772094 49.41666193 37.65429688 47.86132812 C37.60713782 45.40832429 37.56278787 42.95533522 37.52319336 40.50219727 C37.48309354 38.13534757 37.43160628 35.76894197 37.37890625 33.40234375 C37.3704921 32.68118881 37.36207794 31.96003387 37.35340881 31.21702576 C37.23388667 26.21195926 36.57005237 21.77207651 35 17 C31.36217368 15.78739123 28.82264001 15.60455448 25 16 C21.84045695 18.54137159 20.28459114 20.14622659 19 24 C18.85815846 26.71728904 18.7667606 29.41376703 18.71875 32.1328125 C18.70034058 32.9252536 18.68193115 33.7176947 18.66296387 34.53414917 C18.58426422 37.92546077 18.51634086 41.31696718 18.44775391 44.70849609 C18.3961644 47.18337237 18.33888058 49.65807075 18.28125 52.1328125 C18.26767456 52.90569611 18.25409912 53.67857971 18.2401123 54.47488403 C18.11285334 59.88714666 18.11285334 59.88714666 17 61 C11.39 61 5.78 61 0 61 C0 40.87 0 20.74 0 0 Z " fill="#10121F" transform="translate(533,479)"/>
<path d="M0 0 C4.08165827 -0.51020728 5.52957297 -0.31361802 9 2 C9.29180805 4.61671274 9.38880845 6.99670669 9.35644531 9.61499023 C9.35848969 10.40050262 9.36053406 11.18601501 9.36264038 11.99533081 C9.36565604 14.59998622 9.34714651 17.20401325 9.328125 19.80859375 C9.3250683 21.61458682 9.3231915 23.42058225 9.32244873 25.22657776 C9.31784055 29.01548251 9.30339633 32.80417533 9.28125 36.59301758 C9.25298744 41.45336418 9.24204101 46.31354354 9.2375679 51.1739645 C9.23341301 54.90482766 9.22359461 58.63565691 9.21169281 62.36650276 C9.20598902 64.15868928 9.20123067 65.95087905 9.19742584 67.7430706 C9.19056014 70.2473105 9.1769256 72.75141771 9.16113281 75.25561523 C9.16001495 75.99909714 9.15889709 76.74257904 9.15774536 77.5085907 C9.13181261 80.60945283 8.98835888 83.03492335 8 86 C4.9375 87.6875 4.9375 87.6875 2 89 C1.70437633 94.32170494 1.70437633 94.32170494 4 99 C4.680625 99.2475 5.36125 99.495 6.0625 99.75 C6.701875 100.1625 7.34125 100.575 8 101 C8.75 104.625 8.75 104.625 9 108 C8.896875 107.360625 8.79375 106.72125 8.6875 106.0625 C8.460625 105.381875 8.23375 104.70125 8 104 C5.21190105 103.07063368 3.49809232 102.86566467 0.61506653 102.84178162 C-0.28095779 102.8319928 -1.17698212 102.82220398 -2.10015869 102.81211853 C-3.08055115 102.80636307 -4.0609436 102.8006076 -5.07104492 102.79467773 C-6.10536148 102.78477814 -7.13967804 102.77487854 -8.20533752 102.76467896 C-11.63035784 102.73304538 -15.05539203 102.70829909 -18.48046875 102.68359375 C-20.85273096 102.66302583 -23.22498949 102.64202941 -25.59724426 102.62062073 C-31.8459882 102.56538332 -38.0947653 102.51598135 -44.34356689 102.46777344 C-50.71800697 102.41757064 -57.09239879 102.36187819 -63.46679688 102.30664062 C-75.9778231 102.19903861 -88.4888905 102.09741179 -101 102 C-101.33 101.34 -101.66 100.68 -102 100 C-68.67 100 -35.34 100 -1 100 C-1.66 98.68 -2.32 97.36 -3 96 C-2.67 93.03 -2.34 90.06 -2 87 C-33.02 87 -64.04 87 -96 87 C-96 86.67 -96 86.34 -96 86 C-94.17169647 85.9845388 -94.17169647 85.9845388 -92.30645752 85.96876526 C-80.82905987 85.87107927 -69.35171701 85.76834967 -57.87440872 85.66066074 C-51.97358315 85.60545735 -46.07275261 85.55204138 -40.171875 85.50268555 C-34.47898776 85.45500402 -28.78616086 85.40265969 -23.09334564 85.34705925 C-20.91961924 85.3266529 -18.74587629 85.30793698 -16.57212067 85.29092598 C-13.53141799 85.26684404 -10.49082921 85.23679443 -7.45019531 85.20532227 C-6.54820404 85.1995668 -5.64621277 85.19381134 -4.71688843 85.18788147 C-3.88680267 85.17809265 -3.05671692 85.16830383 -2.20147705 85.15821838 C-1.48247852 85.15176583 -0.76348 85.14531328 -0.02269363 85.1386652 C2.35775734 85.03495504 2.35775734 85.03495504 6 84 C6.33 57.27 6.66 30.54 7 3 C3.7 3.33 0.4 3.66 -3 4 C-2.01 2.68 -1.02 1.36 0 0 Z " fill="#161D46" transform="translate(408,472)"/>
<path d="M0 0 C0.29191833 2.53792221 0.38891878 4.8319129 0.35644531 7.37133789 C0.35951187 8.51053429 0.35951187 8.51053429 0.36264038 9.67274475 C0.36565495 12.18962474 0.34715304 14.70585386 0.328125 17.22265625 C0.32506872 18.96617979 0.3231916 20.70970576 0.32244873 22.45323181 C0.31784158 26.10929692 0.30339898 29.76514227 0.28125 33.42114258 C0.25294635 38.11802089 0.24203695 42.81472607 0.2375679 47.51168156 C0.23342011 51.11207324 0.22360836 54.71242958 0.21169281 58.31280327 C0.20597808 60.04523878 0.20122338 61.77767771 0.19742584 63.51011848 C0.19058497 65.92615929 0.17696362 68.34206016 0.16113281 70.75805664 C0.16001495 71.48067688 0.15889709 72.20329712 0.15774536 72.94781494 C0.11468744 77.88531256 0.11468744 77.88531256 -1 79 C-3.6773138 79.09981214 -6.32304175 79.13879875 -9 79.125 C-10.12535156 79.13080078 -10.12535156 79.13080078 -11.2734375 79.13671875 C-16.87338947 79.12661053 -16.87338947 79.12661053 -18 78 C-18.09500548 75.53555943 -18.12557985 73.09925374 -18.11352539 70.63452148 C-18.11367142 69.86384338 -18.11381744 69.09316528 -18.1139679 68.2991333 C-18.1132686 65.73975861 -18.10547545 63.1804558 -18.09765625 60.62109375 C-18.09579213 58.85132385 -18.0943682 57.08155344 -18.09336853 55.31178284 C-18.08954288 50.64448634 -18.0797122 45.97722077 -18.06866455 41.30993652 C-18.05845144 36.55102965 -18.05387113 31.79211779 -18.04882812 27.03320312 C-18.03808997 17.68878847 -18.02101299 8.3443968 -18 -1 C-15.56304285 -1.22181406 -13.126474 -1.42791119 -10.6875 -1.625 C-9.99720703 -1.68945312 -9.30691406 -1.75390625 -8.59570312 -1.8203125 C-4.7440028 -2.11802847 -3.31145584 -2.20763723 0 0 Z M-15 1 C-15 25.75 -15 50.5 -15 76 C-11.04 76 -7.08 76 -3 76 C-3 51.25 -3 26.5 -3 1 C-6.96 1 -10.92 1 -15 1 Z " fill="#141622" transform="translate(635,461)"/>
<path d="M0 0 C5.25086195 4.35484331 9.64540623 8.70352483 10.56640625 15.703125 C10.92612772 20.61374137 10.90886126 25.53246381 10.81640625 30.453125 C10.48640625 30.453125 10.15640625 30.453125 9.81640625 30.453125 C9.64625 29.29554688 9.47609375 28.13796875 9.30078125 26.9453125 C9.05676404 25.40612702 8.81192889 23.86707106 8.56640625 22.328125 C8.45683594 21.56757813 8.34726562 20.80703125 8.234375 20.0234375 C7.15059009 13.40664542 4.61460179 8.62341414 -0.55859375 4.203125 C-1.37457031 3.48382813 -1.37457031 3.48382813 -2.20703125 2.75 C-7.17781737 -0.51146441 -12.32250579 -0.88680446 -18.12109375 -0.859375 C-18.79849609 -0.87548828 -19.47589844 -0.89160156 -20.17382812 -0.90820312 C-26.37814538 -0.91415166 -30.54144469 0.88041722 -35.80859375 4.015625 C-42.25552683 10.63221421 -43.92658167 18.0751811 -44.25 27.12109375 C-44.07870684 35.71597991 -41.75829017 42.70988713 -35.69921875 48.9921875 C-29.16712406 54.7498586 -22.51311291 55.05362146 -14.21484375 54.83203125 C-7.39982228 54.38778102 -1.80658671 51.59923333 2.75390625 46.515625 C4.73138997 43.5793613 6.35817171 40.67659082 7.81640625 37.453125 C8.91299561 40.74289308 8.61593763 42.16616267 7.81640625 45.453125 C7.15640625 45.453125 6.49640625 45.453125 5.81640625 45.453125 C5.72359375 46.319375 5.72359375 46.319375 5.62890625 47.203125 C3.86738708 52.08117809 -1.44675335 54.40886045 -5.8894043 56.58886719 C-9.90222715 58.10056165 -13.80996496 58.13068702 -18.05859375 58.078125 C-18.93612305 58.07409668 -19.81365234 58.07006836 -20.71777344 58.06591797 C-27.54452354 57.85424562 -33.22461791 56.49040046 -38.18359375 51.453125 C-38.18359375 50.793125 -38.18359375 50.133125 -38.18359375 49.453125 C-38.84359375 49.453125 -39.50359375 49.453125 -40.18359375 49.453125 C-44.02079429 43.06952532 -46.94142655 37.96030816 -47.18359375 30.453125 C-47.22097656 29.73511719 -47.25835938 29.01710938 -47.296875 28.27734375 C-47.51307459 21.68894558 -46.26045193 15.68369953 -44.18359375 9.453125 C-43.52359375 9.453125 -42.86359375 9.453125 -42.18359375 9.453125 C-42.12171875 8.89625 -42.05984375 8.339375 -41.99609375 7.765625 C-40.42428546 3.29201678 -36.15573279 -0.093495 -32.18359375 -2.546875 C-22.29057946 -6.63312003 -8.86428543 -6.27952957 0 0 Z " fill="#1A1C30" transform="translate(686.18359375,482.546875)"/>
<path d="M0 0 C0.33 0 0.66 0 1 0 C1.02578125 1.17175781 1.0515625 2.34351563 1.078125 3.55078125 C1.26894678 18.17504682 1.26894678 18.17504682 7.64453125 30.92578125 C13.61849988 36.37914259 19.17810046 37.39998896 27.125 37.25390625 C33.04842156 36.73077799 36.52700888 33.60324284 41 30 C41.66 30 42.32 30 43 30 C43.6119386 41.45685048 43.6119386 41.45685048 41.5625 46.625 C37.54931207 50.34454003 33.27677585 51.85956675 27.8125 52.09375 C23.13906809 51.73970213 20.23759815 50.3387731 17 47 C17 46.34 17 45.68 17 45 C10.565 45.495 10.565 45.495 4 46 C6.11596363 51.054802 8.5236183 53.84020115 13 57 C18.63240313 59.28340667 23.9444606 59.36210789 29.953125 59.55859375 C30.95859375 59.70425781 31.9640625 59.84992187 33 60 C33.66 60.99 34.32 61.98 35 63 C15.49800548 63.75872313 15.49800548 63.75872313 7.625 57.6875 C1.05386647 50.95991091 1.05386647 50.95991091 0.8984375 45.3046875 C0.93195312 44.21414063 0.96546875 43.12359375 1 42 C3.77245014 41.86512405 6.53837088 41.76599193 9.3125 41.6875 C10.09818359 41.64560547 10.88386719 41.60371094 11.69335938 41.56054688 C13.90089856 41.51357796 15.8435307 41.51829069 18 42 C19.85546875 44.45703125 19.85546875 44.45703125 21 47 C25.65963403 48.55321134 30.11380915 48.50298423 34.8125 47.25 C37.45537263 45.73978707 38.60337792 44.71973773 40 42 C40.25063732 38.33285151 40.25063732 38.33285151 40 35 C38.989375 35.825 37.97875 36.65 36.9375 37.5 C30.75798601 41.34845177 24.0151339 40.92125547 17 40 C10.1071453 37.84412866 4.93574607 32.95952459 1 27 C-2.26281735 18.77202582 -2.01262938 8.54964962 0 0 Z " fill="#121424" transform="translate(703,500)"/>
<path d="M0 0 C0.70253906 0.00386719 1.40507813 0.00773437 2.12890625 0.01171875 C2.83144531 0.00785156 3.53398438 0.00398438 4.2578125 0 C9.50229247 0.01010497 9.50229247 0.01010497 10.62890625 1.13671875 C10.72795777 2.97244506 10.75689832 4.8119945 10.75830078 6.65039062 C10.76145294 7.82831177 10.7646051 9.00623291 10.76785278 10.21984863 C10.76582855 11.50210327 10.76380432 12.78435791 10.76171875 14.10546875 C10.76315384 16.06413879 10.76315384 16.06413879 10.76461792 18.06237793 C10.76609458 20.82984597 10.76394136 23.59728179 10.75927734 26.36474609 C10.75358006 29.91934524 10.75685923 33.47386889 10.76284981 37.02846527 C10.76732372 40.40830589 10.76419511 43.78812598 10.76171875 47.16796875 C10.76374298 48.45022339 10.76576721 49.73247803 10.76785278 51.05358887 C10.76470062 52.23151001 10.76154846 53.40943115 10.75830078 54.62304688 C10.75750519 55.66593872 10.75670959 56.70883057 10.75588989 57.7833252 C10.62890625 60.13671875 10.62890625 60.13671875 9.62890625 61.13671875 C6.93235771 61.20991496 4.26199167 61.22914412 1.56640625 61.19921875 C0.42848633 61.19245117 0.42848633 61.19245117 -0.73242188 61.18554688 C-2.61201246 61.17372555 -4.49156274 61.15578953 -6.37109375 61.13671875 C-6.39422167 53.3309668 -6.41201113 45.5252228 -6.42290592 37.71944523 C-6.42813377 34.09525915 -6.43522962 30.47109645 -6.4465332 26.84692383 C-6.45736559 23.352119 -6.46337133 19.85733671 -6.46597099 16.3625164 C-6.46872926 14.37432486 -6.47654063 12.38614244 -6.48439026 10.39796448 C-6.48446579 9.19679489 -6.48454132 7.99562531 -6.48461914 6.75805664 C-6.48683975 5.6943837 -6.48906036 4.63071075 -6.49134827 3.5348053 C-6.26638897 -0.95127875 -3.93941224 0.00759039 0 0 Z M-4.37109375 3.13671875 C-4.37109375 21.28671875 -4.37109375 39.43671875 -4.37109375 58.13671875 C-0.41109375 58.13671875 3.54890625 58.13671875 7.62890625 58.13671875 C7.62890625 39.98671875 7.62890625 21.83671875 7.62890625 3.13671875 C3.66890625 3.13671875 -0.29109375 3.13671875 -4.37109375 3.13671875 Z " fill="#0B0D1C" transform="translate(600.37109375,478.86328125)"/>
<path d="M0 0 C3.0625 1.9375 3.0625 1.9375 5 5 C5.62337099 8.12798656 5.6483903 10.87487559 5 14 C3.12379387 16.50160818 1.76108697 17.61945652 -1 19 C-5.97067782 19.3751455 -9.05151502 19.15878799 -13 16 C-15.32402951 12.79062591 -15.47570691 9.88493979 -15 6 C-10.93006666 -0.10490001 -7.07732061 -1.03719354 0 0 Z " fill="#292B3E" transform="translate(607,455)"/>
<path d="M0 0 C1.485 0.99 1.485 0.99 3 2 C3 2.66 3 3.32 3 4 C3.73412109 4.32162109 4.46824219 4.64324219 5.22460938 4.97460938 C30.07341232 15.88194242 30.07341232 15.88194242 40.53491211 21.26269531 C45.76162821 23.93470553 51.09960695 26.29798688 56.51245117 28.56762695 C59.68806126 29.91471701 62.62110401 31.36215599 65.52734375 33.203125 C69.53473859 35.27669263 71.54047234 35.35334975 76 35 C79.28605344 33.83834845 79.28605344 33.83834845 82.484375 32.12109375 C83.06664856 31.83017349 83.64892212 31.53925323 84.24884033 31.23951721 C86.08948882 30.31852851 87.92023119 29.3798961 89.75 28.4375 C92.17668436 27.19505026 94.60937691 25.96751257 97.046875 24.74609375 C98.11776367 24.19622803 99.18865234 23.6463623 100.29199219 23.07983398 C103 22 103 22 106 23 C105.34 23 104.68 23 104 23 C104 23.66 104 24.32 104 25 C101.8137775 26.10675619 99.62609052 27.21044378 97.4375 28.3125 C96.82841797 28.62123047 96.21933594 28.92996094 95.59179688 29.24804688 C91.45257208 31.3286096 87.26459073 33.19093155 83 35 C81.4579198 35.74914937 79.91618967 36.4990203 78.375 37.25 C75.78984445 38.38345775 74.27757269 39 71.4375 39 C67.84886666 37.52774017 64.4337595 35.80062998 61 34 C55.39904847 31.14685071 49.80213695 28.42634818 44 26 C42.49856362 25.33657462 40.9986421 24.66971359 39.5 24 C35.68150686 22.29706996 31.84715203 20.63708597 28 19 C28 18.34 28 17.68 28 17 C26.39125 16.690625 26.39125 16.690625 24.75 16.375 C19.76149695 15.14556396 15.46124441 12.82093777 10.921875 10.46484375 C7.35227409 8.6752711 3.76979555 7.30492923 0 6 C0 4.02 0 2.04 0 0 Z " fill="#01062D" transform="translate(284,452)"/>
<path d="M0 0 C1.125 1.75 1.125 1.75 2 4 C1.3125 6.1875 1.3125 6.1875 0 8 C-2.79395504 8.93131835 -4.46580696 9.12557521 -7.35128784 9.12698364 C-8.68448563 9.13121338 -8.68448563 9.13121338 -10.0446167 9.13552856 C-11.01715393 9.13350433 -11.98969116 9.1314801 -12.99169922 9.12939453 C-14.01798431 9.13114685 -15.04426941 9.13289917 -16.10165405 9.13470459 C-19.50268228 9.13911467 -22.90365872 9.13618762 -26.3046875 9.1328125 C-28.66496796 9.13348588 -31.02524835 9.1344562 -33.38552856 9.13571167 C-38.33694111 9.13718758 -43.28833564 9.13503786 -48.23974609 9.13037109 C-54.58742143 9.12468012 -60.93505442 9.1279495 -67.2827282 9.13394356 C-72.15886758 9.13755734 -77.03499694 9.1364067 -81.91113663 9.13381577 C-84.25151703 9.13314844 -86.59189834 9.13396815 -88.93227768 9.13629532 C-92.20471355 9.13883451 -95.47708095 9.13496299 -98.74951172 9.12939453 C-99.71800049 9.13141876 -100.68648926 9.13344299 -101.68432617 9.13552856 C-102.57876434 9.13270874 -103.47320251 9.12988892 -104.39474487 9.12698364 C-105.55450742 9.1264181 -105.55450742 9.1264181 -106.73769951 9.12584114 C-109.2316629 8.98711368 -111.56442194 8.54175686 -114 8 C-114 7.01 -114 6.02 -114 5 C-112.90518326 5.24357144 -112.90518326 5.24357144 -111.78824902 5.49206352 C-109.24055967 5.95617715 -106.97009438 6.12572665 -104.38801575 6.12698364 C-103.49213242 6.12980347 -102.59624908 6.13262329 -101.67321777 6.13552856 C-100.70315796 6.13350433 -99.73309814 6.1314801 -98.73364258 6.12939453 C-97.18654854 6.13202301 -97.18654854 6.13202301 -95.60820007 6.13470459 C-92.20362662 6.13910126 -88.79910522 6.13619342 -85.39453125 6.1328125 C-83.02992238 6.13348601 -80.66531359 6.13445643 -78.30070496 6.13571167 C-73.34865661 6.13718555 -68.39662632 6.13504342 -63.44458008 6.13037109 C-57.0854566 6.12466465 -50.72637525 6.12796057 -44.3672533 6.13394356 C-39.48695048 6.13754953 -34.60665772 6.13641058 -29.7263546 6.13381577 C-27.38070356 6.13314708 -25.03505161 6.13397288 -22.68940163 6.13629532 C-19.41896756 6.13882343 -16.14860271 6.13497938 -12.87817383 6.12939453 C-11.90204132 6.13141876 -10.92590881 6.13344299 -9.92019653 6.13552856 C-8.58906075 6.13129883 -8.58906075 6.13129883 -7.23103333 6.12698364 C-6.45769055 6.12660662 -5.68434778 6.12622959 -4.88757038 6.12584114 C-2.91015448 6.11621272 -2.91015448 6.11621272 -1 5 C-0.34444881 2.47266765 -0.34444881 2.47266765 0 0 Z " fill="#00000B" transform="translate(415,576)"/>
<path d="M0 0 C4.54016437 2.8268948 6.94233018 5.68264879 8.53125 10.6953125 C9.99718212 17.90281208 9.86489457 25.56823206 6 32 C2.94790843 35.33600706 0.42094292 37.19696066 -4 38 C-8.40667793 38 -10.38459918 37.46504601 -14 35 C-18.93082929 29.93220323 -20.11410816 25.03863378 -20.375 18.125 C-20.27180703 12.58009775 -19.33987416 8.47112186 -16 4 C-10.99739479 -0.75857569 -6.68618103 -1.81084069 0 0 Z M-15.8125 7 C-18.69118545 11.84831234 -18.57589221 17.52902399 -18 23 C-16.73553437 27.48060646 -15.18516556 30.94296045 -11.6875 34.0625 C-7.59386899 35.49051082 -4.00572854 35.51575877 0.1875 34.4375 C3.26048254 32.00030695 4.87132087 29.70115085 6 26 C7.23772804 15.37792538 7.23772804 15.37792538 3.75 5.625 C0.56926753 2.58884628 -1.09445397 1.30087569 -5.375 0.625 C-9.82419435 1.26059919 -12.84509481 3.72562186 -15.8125 7 Z " fill="#0C0D1B" transform="translate(674,491)"/>
<path d="M0 0 C4.79761083 1.65917374 7.98799227 4.31495836 10.27734375 8.953125 C12.58620318 15.49281333 12.51628548 21.5706389 10.01953125 28.0234375 C7.86794654 32.19470901 4.49244088 35.54656324 0 37 C-4.26220512 37.47357835 -6.4460029 37.29830613 -10.25 35.25 C-15.18493516 31.21232578 -17.20218577 27.38251388 -18 21 C-18.00907839 15.11720601 -17.32177974 9.98266961 -14 5 C-9.23151173 0.69673009 -6.47715131 -0.53091404 0 0 Z M-11 5 C-15.15938934 8.94608732 -15.31335484 12.26589537 -15.5 17.9375 C-15.32513005 23.85185146 -14.75326958 27.41267051 -11 32 C-7.65604473 34.65210246 -4.13693443 34.29031119 0 34 C3.72781164 33.21976035 4.83757095 32.19315887 7.3125 29.25 C10.21429496 23.62407099 9.69741971 17.12261093 9 11 C7.52494425 7.21616134 6.49239789 5.82398802 2.9765625 3.8828125 C-2.49073131 1.62498809 -5.86886787 1.67985568 -11 5 Z " fill="#101121" transform="translate(735,491)"/>
<path d="M0 0 C0.79792969 0.00386719 1.59585937 0.00773437 2.41796875 0.01171875 C3.21589844 0.00785156 4.01382812 0.00398438 4.8359375 0 C10.79136108 0.01011108 10.79136108 0.01011108 11.91796875 1.13671875 C12.0113058 2.73282857 12.03542247 4.33305303 12.03149414 5.93188477 C12.03141861 6.95286758 12.03134308 7.9738504 12.03126526 9.02577209 C12.02610397 10.13617355 12.02094269 11.24657501 12.015625 12.390625 C12.01421005 13.52120834 12.0127951 14.65179169 12.01133728 15.81663513 C12.00571894 19.4441894 11.99316333 23.07168299 11.98046875 26.69921875 C11.97545611 29.15169182 11.9708928 31.60416585 11.96679688 34.05664062 C11.95574355 40.0833542 11.93898759 46.11003214 11.91796875 52.13671875 C11.25796875 52.13671875 10.59796875 52.13671875 9.91796875 52.13671875 C9.91796875 35.63671875 9.91796875 19.13671875 9.91796875 2.13671875 C4.96796875 2.13671875 0.01796875 2.13671875 -5.08203125 2.13671875 C-5.08203125 18.30671875 -5.08203125 34.47671875 -5.08203125 51.13671875 C-5.74203125 51.13671875 -6.40203125 51.13671875 -7.08203125 51.13671875 C-7.10729912 44.03426876 -7.12486326 36.93183027 -7.13696289 29.8293457 C-7.14200474 27.41104703 -7.14883803 24.99275142 -7.1574707 22.57446289 C-7.16954282 19.10692592 -7.17526088 15.63942909 -7.1796875 12.171875 C-7.18484879 11.08334732 -7.19001007 9.99481964 -7.19532776 8.87330627 C-7.19540329 7.87234421 -7.19547882 6.87138214 -7.19555664 5.84008789 C-7.19777725 4.95406387 -7.19999786 4.06803986 -7.20228577 3.15516663 C-6.94071459 -1.23525295 -3.64652129 0.00619104 0 0 Z " fill="#121327" transform="translate(464.08203125,459.86328125)"/>
<path d="M0 0 C5.3602977 4.72638533 7.59151246 10.21967578 8.20043945 17.34564209 C8.49296968 23.95936213 8.36468728 30.57080125 8.25 37.1875 C8.22990364 39.20896667 8.21165842 41.23045264 8.1953125 43.25195312 C8.15156707 48.1684511 8.08271258 53.08400951 8 58 C5.525 58.495 5.525 58.495 3 59 C3 58.34 3 57.68 3 57 C3.99 56.67 4.98 56.34 6 56 C5.67 40.49 5.34 24.98 5 9 C4.34 9 3.68 9 3 9 C1.39771617 7.29059971 -0.01294742 5.46698472 -1.46484375 3.62890625 C-3.77278672 1.1800202 -5.82186492 1.01365106 -9.109375 0.76171875 C-17.67990319 0.58699768 -22.48397556 0.92101018 -28.9375 6.75 C-29.4634375 7.36875 -29.4634375 7.36875 -30 8 C-31.4783226 5.04335481 -31.06032783 2.25770263 -31 -1 C-30.34 0.32 -29.68 1.64 -29 3 C-28.46375 2.38125 -27.9275 1.7625 -27.375 1.125 C-19.90520707 -5.55849894 -8.41041749 -4.13143315 0 0 Z " fill="#1C1E2E" transform="translate(580,481)"/>
<path d="M0 0 C0.33 0 0.66 0 1 0 C0.97679687 0.90621094 0.95359375 1.81242187 0.9296875 2.74609375 C0.7598263 14.21172475 1.1598223 23.90781576 9.484375 32.5390625 C16.01646969 38.2967336 22.67048084 38.60049646 30.96875 38.37890625 C37.78377147 37.93465602 43.37700704 35.14610833 47.9375 30.0625 C49.91498372 27.1262363 51.54176546 24.22346582 53 21 C54.09658936 24.28976808 53.79953138 25.71303767 53 29 C52.34 29 51.68 29 51 29 C50.9071875 29.86625 50.9071875 29.86625 50.8125 30.75 C49.05098083 35.62805309 43.7368404 37.95573545 39.29418945 40.13574219 C35.2813666 41.64743665 31.37362879 41.67756202 27.125 41.625 C26.2474707 41.62097168 25.36994141 41.61694336 24.46582031 41.61279297 C17.63907021 41.40112062 11.95897584 40.03727546 7 35 C7 34.34 7 33.68 7 33 C6.34 33 5.68 33 5 33 C1.16279946 26.61640032 -1.7578328 21.50718316 -2 14 C-2.03738281 13.23558594 -2.07476563 12.47117187 -2.11328125 11.68359375 C-2.25001207 7.31540398 -2.0506345 3.97310435 0 0 Z " fill="#070815" transform="translate(641,499)"/>
<path d="M0 0 C0.33 0 0.66 0 1 0 C1.02578125 1.17175781 1.0515625 2.34351563 1.078125 3.55078125 C1.26894678 18.17504682 1.26894678 18.17504682 7.64453125 30.92578125 C13.61849988 36.37914259 19.17810046 37.39998896 27.125 37.25390625 C33.04842156 36.73077799 36.52700888 33.60324284 41 30 C41.66 30 42.32 30 43 30 C43.05386629 32.12472576 43.09273071 34.24983652 43.125 36.375 C43.14820313 37.55835938 43.17140625 38.74171875 43.1953125 39.9609375 C43 43 43 43 41 45 C40.67 41.7 40.34 38.4 40 35 C38.989375 35.825 37.97875 36.65 36.9375 37.5 C30.75798601 41.34845177 24.0151339 40.92125547 17 40 C10.1071453 37.84412866 4.93574607 32.95952459 1 27 C-2.26281735 18.77202582 -2.01262938 8.54964962 0 0 Z " fill="#080916" transform="translate(703,500)"/>
<path d="M0 0 C4.95 0 9.9 0 15 0 C15 16.5 15 33 15 50 C15.66 50 16.32 50 17 50 C16.67 51.65 16.34 53.3 16 55 C13.81028254 51.71542381 13.75416098 50.7824019 13.77294922 46.9777832 C13.77310028 45.95695145 13.77325134 44.93611969 13.77340698 43.88435364 C13.78889084 42.23423531 13.78889084 42.23423531 13.8046875 40.55078125 C13.8075174 39.4230278 13.81034729 38.29527435 13.81326294 37.13334656 C13.82447084 33.52629042 13.84957677 29.91948127 13.875 26.3125 C13.885029 23.86914421 13.89415499 21.42578453 13.90234375 18.98242188 C13.92441221 12.98818587 13.95894644 6.99413483 14 1 C9.71 1 5.42 1 1 1 C1 19.15 1 37.3 1 56 C0.34 56 -0.32 56 -1 56 C-1.33 53.69 -1.66 51.38 -2 49 C-1.34 49 -0.68 49 0 49 C0 32.83 0 16.66 0 0 Z " fill="#000108" transform="translate(459,462)"/>
<path d="M0 0 C0.495 1.98 0.495 1.98 1 4 C0.14148438 3.67773438 -0.71703125 3.35546875 -1.6015625 3.0234375 C-8.26420849 1.01698549 -16.0608326 0.68697685 -22.5 3.625 C-28.6048076 7.28788456 -31.54959689 12.55157077 -34 19 C-34.66 18.01 -35.32 17.02 -36 16 C-33.54441116 8.63323349 -29.79246524 3.93962984 -23 0 C-15.52536778 -3.3975601 -7.57348042 -2.63425406 0 0 Z " fill="#131523" transform="translate(739,480)"/>
<path d="M0 0 C4.24031178 1.46644116 7.07086818 3.62088953 9.4375 7.4375 C10.87613333 10.71758399 11.42396508 12.50228805 11 16 C10.34 16 9.68 16 9 16 C8.71125 14.9275 8.4225 13.855 8.125 12.75 C6.93682332 8.68041313 6.93682332 8.68041313 5 5 C0.66043368 2.88766528 -3.20463801 2.79138046 -7.8125 4 C-11.42077858 6.26401793 -13.66951648 7.95737699 -15 12 C-15.61340867 16.66294555 -15.87124932 21.30060032 -16 26 C-16.33 26 -16.66 26 -17 26 C-18.11155596 18.83515136 -18.65984516 12.50929603 -15 6 C-10.52516021 1.02531108 -6.63374062 -0.54374923 0 0 Z " fill="#070816" transform="translate(735,491)"/>
<path d="M0 0 C5.91305524 0.31121343 11.19672919 1.52308481 16.8125 3.375 C17.78135132 3.68860474 17.78135132 3.68860474 18.76977539 4.00854492 C22.31445546 5.21841684 25.15571597 6.54976036 28 9 C24.44219804 8.39009109 21.3171411 7.4216319 18 6 C18 6.99 18 7.98 18 9 C20.64 9.33 23.28 9.66 26 10 C26 10.99 26 11.98 26 13 C20.50312182 12.05617796 15.81106204 9.89672671 10.75 7.625 C9.82703125 7.22539062 8.9040625 6.82578125 7.953125 6.4140625 C7.0765625 6.0221875 6.2 5.6303125 5.296875 5.2265625 C4.49604492 4.87158691 3.69521484 4.51661133 2.87011719 4.15087891 C1 3 1 3 0 0 Z " fill="#F3C736" transform="translate(355,453)"/>
<path d="M0 0 C0.33 0 0.66 0 1 0 C0.58649697 5.27216362 -0.17034992 8.27385398 -4 12 C-10.51600455 15.87767994 -16.60169134 15.78284429 -24 15 C-28.3231193 13.60429096 -31.88891132 11.09799566 -34 7 C-34.1875 4.25 -34.1875 4.25 -34 2 C-31 5.75 -31 5.75 -31 8 C-30.34 8 -29.68 8 -29 8 C-29 8.66 -29 9.32 -29 10 C-22.00804098 11.99770258 -16.37907428 13.07004019 -9.25 10.8125 C-5.85295867 8.91799618 -4.26464613 7.10340395 -2 4 C-1.34 4 -0.68 4 0 4 C0 2.68 0 1.36 0 0 Z " fill="#0C0D1C" transform="translate(509,512)"/>
<path d="M0 0 C4.04360636 -0.32348851 6.66919387 -0.13833711 10.4375 1.4375 C13.22466575 4.22466575 13.44648356 4.76346622 13.625 8.5 C13.41013721 11.76591444 13.14247367 12.8100351 11.125 15.5 C7.26773602 18.22277457 4.738295 18.32124034 0 18 C-2.9375 17.1875 -2.9375 17.1875 -5 15 C-5.4257414 11.29932473 -5.28330598 7.70816052 -5 4 C-4.34 3.67 -3.68 3.34 -3 3 C-3.04640625 3.61488281 -3.0928125 4.22976563 -3.140625 4.86328125 C-3.48455448 9.81399874 -3.48455448 9.81399874 -1.4375 14.125 C2.0820169 15.38841632 4.43008934 14.99164185 8 14 C9.6824493 12.38558027 9.6824493 12.38558027 10 10 C9.92457659 6.88006394 9.92457659 6.88006394 9 4 C5.81237635 1.87491756 3.73487777 1.4979837 0 1 C0 0.67 0 0.34 0 0 Z " fill="#060711" transform="translate(599,456)"/>
<path d="M0 0 C5.87213118 0.85842596 9.71344625 5.47644951 13.375 9.8125 C16.85425027 16.63718322 16.14093239 24.49926484 16 32 C15.67 32 15.34 32 15 32 C14.82984375 30.84242188 14.6596875 29.68484375 14.484375 28.4921875 C14.24035779 26.95300202 13.99552264 25.41394606 13.75 23.875 C13.64042969 23.11445313 13.53085937 22.35390625 13.41796875 21.5703125 C12.31624422 14.84399433 9.78028788 10.08375504 4.375 5.75 C2.48190243 4.2123749 0.72825988 2.72825988 -1 1 C-0.67 0.67 -0.34 0.34 0 0 Z " fill="#0D0F1D" transform="translate(681,481)"/>
<path d="M0 0 C2.66666667 1.33333333 5.33333333 2.66666667 8 4 C7.360625 4.165 6.72125 4.33 6.0625 4.5 C3.83880759 5.781786 3.83880759 5.781786 3.51171875 7.9140625 C3.2724022 9.93575155 3.13106972 11.96841939 3 14 C2.2575 13.360625 1.515 12.72125 0.75 12.0625 C-1.7111121 10.21666593 -3.03466926 9.43930826 -6 9 C-6.66 6.69 -7.32 4.38 -8 2 C-5 3 -5 3 -3 6 C-2.34 5.01 -1.68 4.02 -1 3 C-0.34 3 0.32 3 1 3 C0.67 2.01 0.34 1.02 0 0 Z " fill="#FBB73C" transform="translate(400,470)"/>
<path d="M0 0 C4.08165827 -0.51020728 5.52957297 -0.31361802 9 2 C9.32279968 3.98684692 9.32279968 3.98684692 9.2487793 6.44970703 C9.22853195 7.37051056 9.20828461 8.29131409 9.18742371 9.24002075 C9.15006607 10.23589203 9.11270844 11.23176331 9.07421875 12.2578125 C9.04777786 13.27600067 9.02133698 14.29418884 8.99409485 15.3432312 C8.90612443 18.60440351 8.79704669 21.86448794 8.6875 25.125 C8.62426287 27.33199191 8.56239612 29.53902355 8.50195312 31.74609375 C8.35055064 37.16462414 8.18180124 42.58240901 8 48 C7.67 48 7.34 48 7 48 C7 33.15 7 18.3 7 3 C3.7 3.33 0.4 3.66 -3 4 C-2.01 2.68 -1.02 1.36 0 0 Z " fill="#000031" transform="translate(408,472)"/>
<path d="M0 0 C0.05386629 2.12472576 0.09273071 4.24983652 0.125 6.375 C0.14820313 7.55835938 0.17140625 8.74171875 0.1953125 9.9609375 C0 13 0 13 -2 15 C-2.33 11.7 -2.66 8.4 -3 5 C-4.32 5.99 -5.64 6.98 -7 8 C-9.75 8.1875 -9.75 8.1875 -12 8 C-10.88625 7.13375 -10.88625 7.13375 -9.75 6.25 C-7.00740053 4.10390345 -7.00740053 4.10390345 -4.875 1.75 C-3 0 -3 0 0 0 Z " fill="#02030C" transform="translate(746,530)"/>
<path d="M0 0 C0.66 0.33 1.32 0.66 2 1 C0.57891465 3.84217071 -0.46918708 5.66634616 -3.1875 7.375 C-7.14688823 8.25486405 -10.00458979 7.7733052 -14 7 C-14.99 6.34 -15.98 5.68 -17 5 C-17 4.34 -17 3.68 -17 3 C-16.319375 3.165 -15.63875 3.33 -14.9375 3.5 C-10.43822235 4.26583449 -5.304183 4.8210005 -1 3 C-0.67 2.01 -0.34 1.02 0 0 Z " fill="#161829" transform="translate(677,521)"/>
<path d="M0 0 C0.556875 0.268125 1.11375 0.53625 1.6875 0.8125 C0.800625 1.43125 -0.08625 2.05 -1 2.6875 C-5.24816738 6.16877731 -7.14597118 10.87549848 -9.3125 15.8125 C-9.9725 15.8125 -10.6325 15.8125 -11.3125 15.8125 C-11.6425 17.1325 -11.9725 18.4525 -12.3125 19.8125 C-12.50872241 15.59371808 -12.11480168 12.64239106 -10.3125 8.8125 C-9.6525 8.8125 -8.9925 8.8125 -8.3125 8.8125 C-8.250625 8.255625 -8.18875 7.69875 -8.125 7.125 C-6.79786602 3.34777251 -4.28809339 -0.34768325 0 0 Z " fill="#151724" transform="translate(652.3125,483.1875)"/>
<path d="M0 0 C2.5625 1.5 2.5625 1.5 4 3 C3.67 3.99 3.34 4.98 3 6 C2.484375 5.360625 1.96875 4.72125 1.4375 4.0625 C-1.65935623 1.44208319 -4.02067623 1.30610183 -8 1 C-8.66 2.32 -9.32 3.64 -10 5 C-10.66 5 -11.32 5 -12 5 C-12.33 7.97 -12.66 10.94 -13 14 C-15 12 -15 12 -15.375 9.1875 C-14.9175983 5.29958551 -13.69507803 3.77434503 -11 1 C-7.56928684 -0.71535658 -3.75941181 -0.4006478 0 0 Z " fill="#1C1F2D" transform="translate(607,455)"/>
<path d="M0 0 C2.79636762 2.79636762 2.29976679 4.59514984 2.3125 8.5 C2.23035606 14.63552076 1.66059322 20.39810878 -1 26 C-1.66 26.33 -2.32 26.66 -3 27 C-2.855625 25.88625 -2.71125 24.7725 -2.5625 23.625 C-1.95203629 18.75873212 -1.47014775 13.88153414 -1 9 C-0.67 9 -0.34 9 0 9 C0 6.03 0 3.06 0 0 Z " fill="#1A1D2E" transform="translate(696,500)"/>
<path d="M0 0 C5.61 0 11.22 0 17 0 C17.99 2.31 18.98 4.62 20 7 C18.0625 6.1875 18.0625 6.1875 16 5 C15.67 4.01 15.34 3.02 15 2 C8.565 2.495 8.565 2.495 2 3 C2.33 4.65 2.66 6.3 3 8 C2.34 7.67 1.68 7.34 1 7 C0.67 4.69 0.34 2.38 0 0 Z " fill="#050613" transform="translate(705,543)"/>
<path d="M0 0 C4.16486198 -0.30017023 6.65015727 0.54675054 10.3125 2.5 C11.19550781 2.9640625 12.07851563 3.428125 12.98828125 3.90625 C13.65214844 4.2671875 14.31601562 4.628125 15 5 C15 5.66 15 6.32 15 7 C17.31 7.33 19.62 7.66 22 8 C22 8.33 22 8.66 22 9 C16.22312532 9.58315454 12.56339621 7.64333685 7.625 5 C6.88894531 4.6184375 6.15289062 4.236875 5.39453125 3.84375 C3.5906766 2.90668265 1.79452741 1.95480793 0 1 C0 0.67 0 0.34 0 0 Z " fill="#000328" transform="translate(337,490)"/>
<path d="M0 0 C4.97093824 0.41153737 9.44508386 0.79600832 14 3 C11 4 11 4 9 4 C9.66 4.66 10.32 5.32 11 6 C6.87248551 5.39301257 3.6678852 3.96189209 0 2 C0 1.34 0 0.68 0 0 Z " fill="#F6D435" transform="translate(355,453)"/>
<path d="M0 0 C-1 3 -1 3 -3.58203125 4.421875 C-4.64808594 4.86015625 -5.71414063 5.2984375 -6.8125 5.75 C-7.87082031 6.19859375 -8.92914063 6.6471875 -10.01953125 7.109375 C-12.97380744 7.99217313 -14.1900769 8.11580482 -17 7 C-14.54379149 5.82866942 -12.08525083 4.66278278 -9.625 3.5 C-8.92632812 3.16613281 -8.22765625 2.83226562 -7.5078125 2.48828125 C-2.2265625 0 -2.2265625 0 0 0 Z " fill="#040830" transform="translate(417,461)"/>
<path d="M0 0 C-1.98 0.66 -3.96 1.32 -6 2 C-6 2.66 -6 3.32 -6 4 C-7.24176695 4.70226141 -8.49385599 5.38629109 -9.75 6.0625 C-10.79414063 6.63677734 -10.79414063 6.63677734 -11.859375 7.22265625 C-14.36140628 8.1312406 -15.5332355 7.88336837 -18 7 C-14.28445046 4.8325961 -10.54860763 2.70638961 -6.75 0.6875 C-6.10546875 0.34074219 -5.4609375 -0.00601562 -4.796875 -0.36328125 C-3 -1 -3 -1 0 0 Z " fill="#0A1244" transform="translate(303,445)"/>
<path d="M0 0 C0.66 0.33 1.32 0.66 2 1 C-5.12299395 6.13518168 -9.60591662 6.18870462 -18 5 C-18 4.67 -18 4.34 -18 4 C-16.86820313 3.79503906 -15.73640625 3.59007812 -14.5703125 3.37890625 C-13.08851239 3.10693028 -11.60674315 2.83478613 -10.125 2.5625 C-9.37863281 2.42779297 -8.63226562 2.29308594 -7.86328125 2.15429688 C-3.81466622 1.45463389 -3.81466622 1.45463389 0 0 Z " fill="#03030F" transform="translate(747,557)"/>
<path d="M0 0 C4.05819183 0.65503282 7.53971282 1.94559121 11.3125 3.5625 C12.38113281 4.01753906 13.44976562 4.47257812 14.55078125 4.94140625 C15.76314453 5.46541016 15.76314453 5.46541016 17 6 C16.67 6.66 16.34 7.32 16 8 C7.42857143 6 7.42857143 6 4 4 C4 3.34 4 2.68 4 2 C2.68 1.34 1.36 0.68 0 0 Z " fill="#0A1540" transform="translate(407,444)"/>
<path d="M0 0 C0.33 0 0.66 0 1 0 C1.08636719 0.61488281 1.17273438 1.22976563 1.26171875 1.86328125 C1.69173601 4.33686678 2.15839858 6.63246471 3 9 C4.64142963 10.0409066 6.30712215 11.04504326 8 12 C8.8125 15.6875 8.8125 15.6875 9 19 C8.938125 18.38125 8.87625 17.7625 8.8125 17.125 C8.544375 16.42375 8.27625 15.7225 8 15 C7.21625 14.690625 6.4325 14.38125 5.625 14.0625 C3 13 3 13 1.1875 10.875 C-0.40268838 7.02507023 -0.2108574 4.14686216 0 0 Z " fill="#0C153A" transform="translate(408,561)"/>
<path d="M0 0 C1.28970703 -0.03867187 1.28970703 -0.03867187 2.60546875 -0.078125 C3.33378906 0.03015625 4.06210937 0.1384375 4.8125 0.25 C5.4725 1.24 6.1325 2.23 6.8125 3.25 C4.54192623 3.30398987 2.27098712 3.34278742 0 3.375 C-1.89685547 3.40980469 -1.89685547 3.40980469 -3.83203125 3.4453125 C-7.1875 3.25 -7.1875 3.25 -10.1875 1.25 C-6.79676276 0.3458034 -3.49217897 0.10107609 0 0 Z " fill="#111425" transform="translate(731.1875,559.75)"/>
<path d="M0 0 C6.24723226 -0.82200425 10.71317837 2.07448606 16 5 C16 5.33 16 5.66 16 6 C10.79240374 5.56603365 8.11834595 5.26627437 4 2 C1.33238236 1.74875174 1.33238236 1.74875174 -1 2 C-0.67 1.34 -0.34 0.68 0 0 Z " fill="#0A1542" transform="translate(353,421)"/>
<path d="M0 0 C4.08165827 -0.51020728 5.52957297 -0.31361802 9 2 C9 2.66 9 3.32 9 4 C5.04 4 1.08 4 -3 4 C-2.01 2.68 -1.02 1.36 0 0 Z " fill="#141634" transform="translate(408,472)"/>
<path d="M0 0 C3.67176009 -0.34155908 5.58028931 -0.24249951 8.8125 1.625 C11.40674134 4.44160489 11.74327938 6.2347642 12 10 C10.62437146 8.71034824 9.29233607 7.37310707 8 6 C8 5.34 8 4.68 8 4 C7.01 3.67 6.02 3.34 5 3 C5 2.34 5 1.68 5 1 C3.35 1 1.7 1 0 1 C0 0.67 0 0.34 0 0 Z " fill="#040510" transform="translate(560,492)"/>
<path d="M0 0 C0 4.29 0 8.58 0 13 C-0.66 13 -1.32 13 -2 13 C-2.33 9.04 -2.66 5.08 -3 1 C-1 0 -1 0 0 0 Z " fill="#0D175A" transform="translate(396,480)"/>
<path d="M0 0 C2.17854707 3.2678206 3.49760034 6.38058265 5 10 C4.01 10 3.02 10 2 10 C0.25 7.8125 0.25 7.8125 -1 5 C-0.6875 2.1875 -0.6875 2.1875 0 0 Z " fill="#10111E" transform="translate(656,514)"/>
<path d="M0 0 C3.40424844 1.13474948 4.21653709 1.96811304 6 5 C5.67 5.99 5.34 6.98 5 8 C4.01 7.67 3.02 7.34 2 7 C0.8125 3.4375 0.8125 3.4375 0 0 Z M7 1 C7.33 1.99 7.66 2.98 8 4 C7.01 4.495 7.01 4.495 6 5 C6.33 3.68 6.66 2.36 7 1 Z " fill="#E6A626" transform="translate(392,472)"/>
<path d="M0 0 C0.95465783 2.16967689 1.14401212 3.56328793 0.3984375 5.82421875 C-0.35870385 7.5684743 -1.17609198 9.28627131 -2 11 C-2.66 10.01 -3.32 9.02 -4 8 C-1.72972973 1.72972973 -1.72972973 1.72972973 0 0 Z " fill="#0E0F1A" transform="translate(707,488)"/>
<path d="M0 0 C4.85963179 0.60745397 8.7405518 2.72758967 13 5 C13 5.33 13 5.66 13 6 C5.73846154 5.63076923 5.73846154 5.63076923 2 2.4375 C1.34 1.633125 0.68 0.82875 0 0 Z " fill="#080F3E" transform="translate(327,484)"/>
<path d="M0 0 C2.4375 1 2.4375 1 4 2 C0.97562661 3.5121867 -1.66241534 3.17263369 -5 3 C-7.4375 2 -7.4375 2 -9 1 C-5.97562661 -0.5121867 -3.33758466 -0.17263369 0 0 Z " fill="#020410" transform="translate(735,491)"/>
<path d="M0 0 C0.33 0 0.66 0 1 0 C1 2.64 1 5.28 1 8 C1.66 8 2.32 8 3 8 C3.66 9.98 4.32 11.96 5 14 C2 13 2 13 0.8203125 11.234375 C-0.09442005 8.74281777 -0.20275975 6.89383164 -0.125 4.25 C-0.10695313 3.45078125 -0.08890625 2.6515625 -0.0703125 1.828125 C-0.04710937 1.22484375 -0.02390625 0.6215625 0 0 Z " fill="#00031F" transform="translate(302,560)"/>
<path d="M0 0 C-3.12781414 2.52631142 -6.29577411 4.42373366 -10 6 C-10.99 5.67 -11.98 5.34 -13 5 C-11.02 4.34 -9.04 3.68 -7 3 C-7 2.34 -7 1.68 -7 1 C-4.53721199 -0.231394 -2.7204945 -0.07159196 0 0 Z " fill="#020631" transform="translate(310,442)"/>
<path d="M0 0 C1.34591601 2.69183201 0.95054711 5.0776766 0.90234375 8.0234375 C1.02020133 10.40887491 1.67942957 12.01914436 3 14 C0.525 13.01 0.525 13.01 -2 12 C-1.85962479 10.18706911 -1.71255111 8.3746557 -1.5625 6.5625 C-1.48128906 5.55316406 -1.40007812 4.54382813 -1.31640625 3.50390625 C-1 1 -1 1 0 0 Z " fill="#000211" transform="translate(408,559)"/>
<path d="M0 0 C0.33 0 0.66 0 1 0 C1.25 5.625 1.25 5.625 -1 9 C-1.99 9 -2.98 9 -4 9 C-2.94124926 5.59687262 -1.99097846 2.98646769 0 0 Z " fill="#0D0E1C" transform="translate(611,463)"/>
<path d="M0 0 C3.465 1.485 3.465 1.485 7 3 C7 3.66 7 4.32 7 5 C7.66 5.33 8.32 5.66 9 6 C4.87248551 5.39301257 1.6678852 3.96189209 -2 2 C-1.34 1.34 -0.68 0.68 0 0 Z " fill="#010736" transform="translate(291,458)"/>
<path d="M0 0 C2 4 2 4 1.3125 7.1875 C0.6628125 8.5796875 0.6628125 8.5796875 0 10 C-0.99 10.33 -1.98 10.66 -3 11 C-2.01 7.37 -1.02 3.74 0 0 Z " fill="#050813" transform="translate(523,515)"/>
<path d="M0 0 C1.4540625 0.0309375 1.4540625 0.0309375 2.9375 0.0625 C2.380625 0.475 1.82375 0.8875 1.25 1.3125 C-1.22445956 3.18506399 -3.6460229 5.11589344 -6.0625 7.0625 C-3.83347902 0.07823427 -3.83347902 0.07823427 0 0 Z " fill="#0C0E1E" transform="translate(727.0625,492.9375)"/>
<path d="M0 0 C2.66666667 1.33333333 5.33333333 2.66666667 8 4 C6.35 4.66 4.7 5.32 3 6 C1 3 1 3 0 0 Z " fill="#C58B2E" transform="translate(400,470)"/>
<path d="M0 0 C4.39158329 1.4638611 4.87947433 3.97831338 7 8 C3.64379729 6.61122646 1.92701272 5.08322035 0 2 C0 1.34 0 0.68 0 0 Z " fill="#03082B" transform="translate(295,575)"/>
<path d="M0 0 C0 3.52032428 -0.70351351 4.4385343 -3 7 C-3.66 7 -4.32 7 -5 7 C-4.60196439 4.11424181 -4.20990931 3.17810487 -1.9375 1.25 C-1.298125 0.8375 -0.65875 0.425 0 0 Z " fill="#101224" transform="translate(521,525)"/>
<path d="M0 0 C4.44870215 -0.39253254 7.14243493 0.84694043 11 3 C11 3.33 11 3.66 11 4 C6.44262737 3.56179109 3.42346555 3.14958831 0 0 Z " fill="#010736" transform="translate(337,490)"/>
<path d="M0 0 C-2.31 1.65 -4.62 3.3 -7 5 C-6.625 2.5625 -6.625 2.5625 -6 0 C-4 -1 -4 -1 0 0 Z " fill="#10101D" transform="translate(654,484)"/>
</svg>
